<svg xmlns="http://www.w3.org/2000/svg" width="32.721" height="32.595" viewBox="0 0 32.721 32.595">
  <g id="american-express">
    <path id="Path_3309" data-name="Path 3309" d="M31.655,23.132a2.43,2.43,0,0,0,1.24-.33V32.6H.3V15.882H1.854l.314-.816h.753l.314.816H15.7v-.989l.785.989h3.28v-.5a2.613,2.613,0,0,0,1.648.5h1.946l.314-.816h.769l.314.816h3.327V14.8l.691,1.083h2.307V10.326H28.626v1.13l-.706-1.13H25.77V11.77l-.643-1.428H21.486a2.691,2.691,0,0,0-1.711.549v-.549H7.786l-.408,1.224L6.97,10.342H4.255V11.77l-.643-1.428H1.383L.3,12.869V0H32.9V17.592H13.121l-.581.816-.565-.816H6.342v5.555H11.96l.565-.816.581.816h3.421V21.892H16.9a3.316,3.316,0,0,0,1.02-.157v1.4h2.338v-.989l.785.989H31.655m.879-3.876H30.886a.346.346,0,1,0,0,.691h.895a1.079,1.079,0,0,1,1.114.628,1.479,1.479,0,0,1,.078.471,1.458,1.458,0,0,1-.078.455,1.211,1.211,0,0,1-1.24.769H29.709v-.816h1.962a.347.347,0,0,0,.377-.345.338.338,0,0,0-.377-.345h-.879a1.066,1.066,0,0,1-1.193-1.13,1.191,1.191,0,0,1,1.318-1.193H32.9l-.016.016Zm-5.555.345a.342.342,0,0,0,.361.345h.895a1.051,1.051,0,0,1,1.193,1.1,1.189,1.189,0,0,1-1.318,1.224H26.163v-.816H28.14a.347.347,0,0,0,.377-.345.338.338,0,0,0-.377-.345h-.895a1.073,1.073,0,0,1-1.193-1.13,1.182,1.182,0,0,1,1.318-1.193h1.993L29,19.256H27.355a.339.339,0,0,0-.377.345M22.585,18.44H25.66v.816H23.51v.691h2.1v.8h-2.1v.706h2.15v.816H22.585Zm-1.365,3.845L20.074,20.9h-.439v1.381h-.926V18.44H20.8a1.226,1.226,0,0,1,.3,2.432l1.271,1.412Zm-.5-2.181a.431.431,0,0,0,.486-.424c0-.235-.157-.424-.486-.424H19.634V20.1h1.083m-2.5-.377a1.258,1.258,0,0,1-1.365,1.287H15.7v1.271h-.926V18.44h2.119a1.232,1.232,0,0,1,1.334,1.287m-.926,0a.441.441,0,0,0-.486-.471h-1.1V20.2h1.1a.449.449,0,0,0,.486-.471m-3.845,2.558-.942-1.24-.942,1.24H10.454l1.522-1.915-1.538-1.915H11.6l.942,1.224.942-1.224h1.13l-1.538,1.9,1.538,1.93ZM7.221,18.44H10.3v.816H8.147v.691h2.1v.8h-2.1v.706H10.3v.816H7.221Zm21.845-3.405-1.412-2.166-.251-.424h-.016l.016.455v2.134h-.91V11.189h1.13l1.35,2.072.267.424h.016l-.016-.455v-2.04h.91v3.845H29.066Zm-4.127-.816h-1.8l-.33.8h-.989l1.648-3.845h1.224l1.648,3.845H25.284Zm-.659-1.632-.235-.6h-.016l-.235.6-.361.895h1.224Zm-2.856-.565a.953.953,0,0,0-.989,1.067v.047a.95.95,0,0,0,1,1.067h.282l-.377.816h-.063a1.7,1.7,0,0,1-1.773-1.883v-.063a1.734,1.734,0,0,1,1.836-1.883h1.083v.832h-1M18.033,13.1V11.189h.926v3.845h-.926Zm-1.365,1.93-1.146-1.381h-.439v1.381h-.926V11.189h2.1a1.226,1.226,0,0,1,.3,2.432l1.271,1.412Zm-.5-2.181a.428.428,0,1,0,0-.847H15.1v.847h1.067m-5.7-1.663h3.076v.816H11.4V12.7h2.1v.8H11.4V14.2h2.15v.816H10.469ZM8.853,12.508l.016-.581H8.853l-.188.581-.879,2.527H6.938l-.879-2.527-.173-.581H5.871l.016.581v2.527H4.992V11.189H6.483l.753,2.228.126.424h.016l.126-.424.753-2.228H9.763v3.845H8.869V12.508ZM3.439,14.218h-1.8l-.33.8H.316l1.648-3.845H3.188l1.648,3.845H3.784ZM2.78,12.586l-.235-.6H2.528l-.235.6-.361.895H3.156Z" transform="translate(-0.253)" fill="#fff"/>
    <rect id="Rectangle_3589" data-name="Rectangle 3589" width="32.705" height="32.564" fill="none"/>
    <rect id="Rectangle_3590" data-name="Rectangle 3590" width="32.674" height="32.579" transform="translate(0.047)" fill="none"/>
  </g>
</svg>
