<svg xmlns="http://www.w3.org/2000/svg" xmlns:xlink="http://www.w3.org/1999/xlink" width="78.918" height="27.782" viewBox="0 0 78.918 27.782">
  <defs>
    <clipPath id="clip-path">
      <rect id="Rectangle_3575" data-name="Rectangle 3575" width="78.918" height="27.753" fill="#fff"/>
    </clipPath>
  </defs>
  <g id="comcast">
    <path id="Path_17" data-name="Path 17" d="M46.246,54.5a5.831,5.831,0,1,0,5.846,5.846A5.853,5.853,0,0,0,46.246,54.5m0,10.511a4.694,4.694,0,1,1,4.694-4.694A4.687,4.687,0,0,1,46.246,65.011Z" transform="translate(-28.472 -38.409)" fill="#fff"/>
    <path id="Path_18" data-name="Path 18" d="M217.844,60.4c-.325-.177-2.214-1.151-2.48-1.3-1-.5-1.358-.974-1.358-1.712,0-1.063.886-1.742,2.214-1.742a4.49,4.49,0,0,1,2.008.59.439.439,0,0,0,.266.059.561.561,0,0,0,.561-.561.609.609,0,0,0-.3-.5,5.408,5.408,0,0,0-2.569-.738c-1.978,0-3.366,1.181-3.366,2.893a2.991,2.991,0,0,0,1.978,2.746c.266.148,2.214,1.122,2.48,1.3a1.907,1.907,0,0,1,1.181,1.683,2.013,2.013,0,0,1-2.214,1.89,4.268,4.268,0,0,1-2.8-1.24l-.089-.089-.856.768.089.089a5.385,5.385,0,0,0,3.631,1.594,3.2,3.2,0,0,0,3.366-3.041,2.915,2.915,0,0,0-1.742-2.687" transform="translate(-149.761 -38.409)" fill="#fff"/>
    <path id="Path_19" data-name="Path 19" d="M5.846,55.651A4.644,4.644,0,0,1,9.152,57.01a.59.59,0,0,0,.8,0,.536.536,0,0,0,.177-.413.583.583,0,0,0-.177-.413l-.059-.059A5.767,5.767,0,0,0,5.846,54.5a5.831,5.831,0,1,0,4.281,9.772l-.8-.827a4.682,4.682,0,1,1-3.484-7.794" transform="translate(0 -38.409)" fill="#fff"/>
    <path id="Path_20" data-name="Path 20" d="M139.746,55.651a4.644,4.644,0,0,1,3.307,1.358.59.59,0,0,0,.8,0,.536.536,0,0,0,.177-.413.583.583,0,0,0-.177-.413l-.059-.059a5.767,5.767,0,0,0-4.045-1.624,5.831,5.831,0,1,0,4.281,9.772l-.8-.827a4.682,4.682,0,1,1-3.484-7.794" transform="translate(-94.367 -38.409)" fill="#fff"/>
    <path id="Path_21" data-name="Path 21" d="M95.745,54.5a.554.554,0,0,0-.472.325c-.089.177-3.425,8.444-3.425,8.444S88.511,55,88.423,54.825a.554.554,0,0,0-.472-.325.533.533,0,0,0-.5.413C87.39,55.15,85.5,65.542,85.5,65.542v.089a.529.529,0,0,0,.531.531.486.486,0,0,0,.5-.413l1.624-8.887s3.159,7.765,3.248,7.972a.506.506,0,0,0,.945,0c.089-.177,3.248-7.972,3.248-7.972L97.28,66.1h1.063s-1.978-10.953-2.037-11.19a.67.67,0,0,0-.561-.413" transform="translate(-60.257 -38.409)" fill="#fff"/>
    <path id="Path_22" data-name="Path 22" d="M178.912,54.5a.555.555,0,0,0-.472.325c-.089.177-4.311,10.629-4.311,10.629a.438.438,0,0,0-.03.207.529.529,0,0,0,.531.531.52.52,0,0,0,.472-.325l1.653-4.045h4.4l1.742,4.311h1.122s-4.488-11.1-4.576-11.278a.655.655,0,0,0-.531-.354M177.2,60.671l1.742-4.251,1.742,4.251Z" transform="translate(-122.699 -38.409)" fill="#fff"/>
    <path id="Path_23" data-name="Path 23" d="M249.117,55.361a.561.561,0,0,0-.561-.561h-6.5a.561.561,0,0,0,0,1.122h2.716V66.314h1.063V55.922h2.716a.581.581,0,0,0,.561-.561" transform="translate(-170.199 -38.621)" fill="#fff"/>
    <g id="Group_5" data-name="Group 5">
      <g id="Group_3" data-name="Group 3" clip-path="url(#clip-path)">
        <path id="Path_24" data-name="Path 24" d="M138.792,1.289a2.452,2.452,0,0,1-.207,2.214L135.84,9.7l-.03.03-1-6.289c-.089-.59.561-.856.945-1.151-.03-.089-.118-.089-.177-.118h-.945l-.03-.03a2.121,2.121,0,0,1,1.151-1.89,2.194,2.194,0,0,1,2.45.236,2.16,2.16,0,0,1,.59.8" transform="translate(-94.861 0.01)" fill="#fff"/>
      </g>
      <g id="Group_4" data-name="Group 4" clip-path="url(#clip-path)">
        <path id="Path_25" data-name="Path 25" d="M121.9,1.132a2.1,2.1,0,0,1,.266,1.417l-1.122,7.2v.03l-.3-.59-2.8-6.289A2.19,2.19,0,0,1,118.5.659a2.229,2.229,0,0,1,2.362-.443,2.213,2.213,0,0,1,1.033.915" transform="translate(-83.044 -0.039)" fill="#fff"/>
      </g>
    </g>
    <path id="Path_26" data-name="Path 26" d="M145.827,11.2a2.2,2.2,0,0,1-.118,2.214,3.969,3.969,0,0,1-1.063.915L138.8,18.349h0l.059-.177,3.1-7a2.249,2.249,0,0,1,2.273-1.122,2.214,2.214,0,0,1,1.594,1.151" transform="translate(-97.821 -7.071)" fill="#fff"/>
    <path id="Path_27" data-name="Path 27" d="M107.852,11.165l3.218,7.174h-.059l-6.5-4.488a2.152,2.152,0,0,1-.709-2.244,2.23,2.23,0,0,1,1.329-1.447,2.2,2.2,0,0,1,2.716,1" transform="translate(-73.102 -7.061)" fill="#fff"/>
    <path id="Path_28" data-name="Path 28" d="M146.975,28a2.218,2.218,0,0,1-.266,2.214,2.252,2.252,0,0,1-1.8.856H138l5.787-4.045a2.255,2.255,0,0,1,2.037-.148A2.363,2.363,0,0,1,146.975,28" transform="translate(-97.257 -18.816)" fill="#fff"/>
    <path id="Path_29" data-name="Path 29" d="M98.563,28a2.218,2.218,0,0,0,.266,2.214,2.252,2.252,0,0,0,1.8.856h6.909l-5.787-4.045A2.229,2.229,0,0,0,98.563,28" transform="translate(-69.334 -18.816)" fill="#fff"/>
  </g>
</svg>
