<svg xmlns="http://www.w3.org/2000/svg" width="77.987" height="19.72" viewBox="0 0 77.987 19.72">
  <g id="cvs">
    <path id="XMLID_4_" d="M149.926,1.2a9.476,9.476,0,0,0-7.037,2.507c-1.653,1.671-2.488,4.066-2.488,7.186a10.62,10.62,0,0,0,1.411,5.756,7.924,7.924,0,0,0,3.361,3.138,12.121,12.121,0,0,0,5.013.891,10.411,10.411,0,0,0,4.178-.724,6.958,6.958,0,0,0,2.748-2.172,8.548,8.548,0,0,0,1.875-4.661l-5.459-.074a4.209,4.209,0,0,1-1.151,2.321,3.733,3.733,0,0,1-5.2-.223q-.947-1.17-.947-4.289a6.727,6.727,0,0,1,.8-3.714,3.679,3.679,0,0,1,4.6-1.244,3.3,3.3,0,0,1,1.188,1.021,3.878,3.878,0,0,1,.557,1.263l5.57.074A8.329,8.329,0,0,0,155.5,2.611,9.609,9.609,0,0,0,149.926,1.2" transform="translate(-114.33 -0.977)" fill="#fff"/>
    <path id="XMLID_3_" d="M253.2,3h-5.923L244.01,15.032,240.89,3H234.8l6,18.828h6.313L253.2,3" transform="translate(-191.201 -2.443)" fill="#fff"/>
    <path id="XMLID_2_" d="M337.93,1.2a11.7,11.7,0,0,0-4.642.743,6.311,6.311,0,0,0-2.767,1.987,4.969,4.969,0,0,0-.836,2.748,5.2,5.2,0,0,0,1.523,3.881c1.281,1.226,3.1,1.8,5.663,2.377,1.56.334,2.711.409,3.138.8s.353.854.334,1.337c-.037,1.021-1.448,1.374-2.284,1.393H338a2.621,2.621,0,0,1-2.822-2.172H329.5a6.624,6.624,0,0,0,1.8,4.549c1.225,1.226,3.454,1.857,6.666,1.857a11.065,11.065,0,0,0,4.531-.8,6.188,6.188,0,0,0,2.8-2.321,5.982,5.982,0,0,0,1-3.342,5.3,5.3,0,0,0-.743-2.785,5.533,5.533,0,0,0-2.451-1.875,27.188,27.188,0,0,0-5.533-1.56c-1.021-.223-2.061-.538-2.024-1.671.019-.687,1.114-1.3,1.783-1.3,1.225,0,2.73.631,2.73,1.95l5.571-.019a6.134,6.134,0,0,0-2.21-4.419,9.27,9.27,0,0,0-5.5-1.355" transform="translate(-268.317 -0.977)" fill="#fff"/>
    <path id="XMLID_1_" d="M23.47,5.032c-1-.984-4.029-3.936-4.921-4.791A.815.815,0,0,0,17.974,0H16.3a.874.874,0,0,0-.613.26L12.162,3.992l-.279.019-.279-.019L8.077.26A.8.8,0,0,0,7.483,0H5.812a.894.894,0,0,0-.594.241c-.873.854-3.9,3.807-4.9,4.791A1.041,1.041,0,0,0,0,5.775V7.557A1.041,1.041,0,0,0,.316,8.3L11.9,19.72,23.489,8.3a1.01,1.01,0,0,0,.316-.743V5.775A1.144,1.144,0,0,0,23.47,5.032Z" fill="#fff"/>
  </g>
</svg>
