<svg xmlns="http://www.w3.org/2000/svg" width="31.154" height="30.639" viewBox="0 0 31.154 30.639">
  <path id="j-j" d="M30.647,11.535a14.872,14.872,0,0,0-2.9,2.721c-.155-1.4-.33-2.838-.428-4.509-.253-3.868-.253-7.114.389-8.766C28.1-.01,27.732-.2,27.071.087A11.414,11.414,0,0,0,20.21,10.175a10.669,10.669,0,0,0,1.147,5.015c-.972.855-2.157.719-3.071.894-.447-1.5-.855-3.246-2.391-4.1-2.546-1.885-5.831,0-8.4,1.71-.136-1.225-.272-2.507-.369-3.946-.253-3.868-.253-7.114.389-8.766C7.906-.01,7.537-.2,6.876.087A11.447,11.447,0,0,0,0,10.175c-.058,4.1,2.06,7.25,4.432,8.338l-.233.35A19.937,19.937,0,0,0,1.531,25C.87,27.532,1.084,30.233,2.7,30.564c2.216.466,4.49-3.44,5-7.211a32.132,32.132,0,0,0-.019-7.989c.039-.039.078-.1.1-.117.272-.35.486-.622.661-.875a11.142,11.142,0,0,1,3.246-2.041,3.947,3.947,0,0,1,3.5.758c.447.544,1.108,1.205.855,1.9-.991-.253-1.788-.894-2.9-.855a2.539,2.539,0,0,0-2.643.991c-.35.758.253,1.458.758,2,1.4,1.594,5.6-.8,5.851,2.041.7-.253.641-1.244.952-1.9a20.765,20.765,0,0,1,4.023-.952,6.676,6.676,0,0,0,2.585,2.2,3.381,3.381,0,0,0-.214.35A19.937,19.937,0,0,0,21.784,25c-.661,2.527-.447,5.229,1.166,5.559,2.216.466,4.49-3.44,5-7.211a31.156,31.156,0,0,0-.039-7.989c.039-.039.078-.1.1-.117a34.356,34.356,0,0,1,2.857-2.974c.35-.369.486-1.186-.214-.739ZM6.234,25c-.369,3.81-2.1,4.14-2.877,3.868-.894-.33-1.147-3.09.233-6.57a26.61,26.61,0,0,1,2.255-4.354A33.85,33.85,0,0,1,6.234,25ZM6.681,1.467A17.107,17.107,0,0,0,5.049,8.425a55.22,55.22,0,0,0,.661,8.183c-.292.428-.6.855-.875,1.3-1.691-1.186-2.527-3.674-2.643-7.522C2,4.635,4.8,1.817,6.332,1.078c.389-.175.583-.155.35.389Zm8.96,15.219a3.447,3.447,0,0,1-2.6-.35c-.194-.194-.758-.6-.408-.991,1.147-.641,2.158.058,2.993.991v.35ZM26.429,25c-.369,3.81-2.1,4.14-2.857,3.868-.894-.33-1.147-3.09.233-6.57a26.61,26.61,0,0,1,2.255-4.354A33.722,33.722,0,0,1,26.429,25Zm.447-23.538a17.107,17.107,0,0,0-1.633,6.958,55.221,55.221,0,0,0,.661,8.183c-.311.428-.6.855-.894,1.3-1.691-1.186-2.527-3.674-2.643-7.522-.175-5.753,2.643-8.572,4.179-9.31.369-.175.583-.155.33.389Z" transform="translate(0.006 0.037)" fill="#fff" fill-rule="evenodd"/>
</svg>
