<svg xmlns="http://www.w3.org/2000/svg" width="94.668" height="17.119" viewBox="0 0 94.668 17.119">
  <g id="loreal">
    <path id="Path_30" data-name="Path 30" d="M326.4,28.364h12.212v-1.5H328.5V22.084h7.6v-1.5h-7.6v-4.4h10.114V14.7H326.4" transform="translate(-274.901 -12.381)" fill="#fff"/>
    <path id="Path_31" data-name="Path 31" d="M357.857.7,356.2,2.546,361.391.7" transform="translate(-299.999 -0.59)" fill="#fff"/>
    <path id="Path_32" data-name="Path 32" d="M523.609,26.865V14.7H521.7V28.364h12.354v-1.5" transform="translate(-439.386 -12.381)" fill="#fff"/>
    <path id="Path_33" data-name="Path 33" d="M415,23.11l3.266-6.532,3.313,6.532m-4.639-8.41L410,28.364h2.351l1.783-3.534h8.331l1.8,3.534h2.3L419.625,14.7" transform="translate(-345.31 -12.381)" fill="#fff"/>
    <path id="Path_34" data-name="Path 34" d="M229.531,20.927h-6.374v-4.7h6.6a2.562,2.562,0,0,1,2.682,1.609,2.518,2.518,0,0,1-.268,1.988,2.811,2.811,0,0,1-2.635,1.1m1.641,1.625c3.124-.836,3.44-3.171,3.424-3.992-.189-2.446-1.83-3.96-4.781-3.96H221.2V28.264h1.956V22.536h5.6l4.118,5.727h2.493c0,.016-2.982-3.85-4.2-5.712" transform="translate(-186.299 -12.296)" fill="#fff"/>
    <path id="Path_35" data-name="Path 35" d="M96.562,15.431a6.932,6.932,0,0,1-6.99-6.785,7.07,7.07,0,0,1,14.137,0,7.083,7.083,0,0,1-7.147,6.785M96.625,0C91.087,0,87.3,3.913,87.3,8.631c0,4.986,4.165,8.489,9.325,8.489,5.144,0,9.309-3.471,9.309-8.489,0-4.718-3.818-8.631-9.309-8.631" transform="translate(-73.526)" fill="#fff"/>
    <path id="Path_36" data-name="Path 36" d="M56,19.528h1.42L59.992,14.7H57.925" transform="translate(-47.164 -12.381)" fill="#fff"/>
    <path id="Path_37" data-name="Path 37" d="M1.909,26.865V14.7H0V28.364H12.354v-1.5" transform="translate(0 -12.381)" fill="#fff"/>
  </g>
</svg>
