<svg id="clearbox" xmlns="http://www.w3.org/2000/svg" width="160.4" height="29.209" viewBox="0 0 160.4 29.209">
  <g id="Group_13" data-name="Group 13">
    <path id="Path_3292" data-name="Path 3292" d="M0,14.632a20.436,20.436,0,0,1,.77-5.5A12.87,12.87,0,0,1,3.19,4.4,10.9,10.9,0,0,1,7.206,1.21,12.52,12.52,0,0,1,12.927,0a16.335,16.335,0,0,1,3.8.44,14.578,14.578,0,0,1,3.3,1.155,1.2,1.2,0,0,1,.66.605,2.361,2.361,0,0,1,.22.77,1.536,1.536,0,0,1-.33.99,1.175,1.175,0,0,1-.935.44,1.074,1.074,0,0,1-.385-.055,22.592,22.592,0,0,0-3.135-.935A14.347,14.347,0,0,0,13.2,3.08a9.478,9.478,0,0,0-3.19.5A7.849,7.849,0,0,0,7.591,4.9a8.337,8.337,0,0,0-1.76,1.925,12.439,12.439,0,0,0-1.21,2.42,14.838,14.838,0,0,0-.66,2.7,23.276,23.276,0,0,0-.22,2.64,14.48,14.48,0,0,0,.22,2.585,14.838,14.838,0,0,0,.66,2.7,9.069,9.069,0,0,0,1.21,2.42A7.432,7.432,0,0,0,7.591,24.2a8.538,8.538,0,0,0,2.42,1.32,9.478,9.478,0,0,0,3.19.5c.44,0,.935-.055,1.485-.11a8.77,8.77,0,0,0,1.65-.33c.55-.165,1.155-.33,1.705-.55a12.093,12.093,0,0,0,1.705-.825,2.682,2.682,0,0,1,.385-.165c.11,0,.22-.055.33-.055a1.172,1.172,0,0,1,.88.385,1.388,1.388,0,0,1,.33.935,1.747,1.747,0,0,1-.44,1.1,4.688,4.688,0,0,1-1.1.935,10.75,10.75,0,0,1-1.6.77,18.558,18.558,0,0,1-1.87.55,11.749,11.749,0,0,1-1.925.33c-.66.055-1.21.11-1.76.11a13.53,13.53,0,0,1-5.776-1.155,11.084,11.084,0,0,1-4.071-3.19A13.4,13.4,0,0,1,.77,20.078,20.66,20.66,0,0,1,0,14.632Z" fill="#6ca4da"/>
    <path id="Path_3293" data-name="Path 3293" d="M51.6,2.1a1.461,1.461,0,0,1,.5-1.21A1.681,1.681,0,0,1,53.2.5,2.339,2.339,0,0,1,53.8.61a2.23,2.23,0,0,1,.5.275.8.8,0,0,1,.33.5,1.523,1.523,0,0,1,.165.715V27.288a1.461,1.461,0,0,1-.5,1.21,1.764,1.764,0,0,1-2.2,0,1.461,1.461,0,0,1-.5-1.21V2.1Z" transform="translate(-23.216 -0.225)" fill="#6ca4da"/>
    <path id="Path_3294" data-name="Path 3294" d="M85.412,24.991a1.482,1.482,0,0,1-.275.825,1.345,1.345,0,0,1-.99.33H69.9a10.766,10.766,0,0,0,.55,3.245,5.773,5.773,0,0,0,1.485,2.255,6.3,6.3,0,0,0,2.145,1.32,7.638,7.638,0,0,0,2.53.44,8.314,8.314,0,0,0,2.97-.55,12.777,12.777,0,0,0,2.97-1.54,1.647,1.647,0,0,1,.44-.22.936.936,0,0,1,.385-.055.95.95,0,0,1,.715.275,1.159,1.159,0,0,1,.275.715,1.036,1.036,0,0,1-.11.44,1.3,1.3,0,0,1-.33.5,10.506,10.506,0,0,1-1.76,1.32,8.669,8.669,0,0,1-1.925.88,13.031,13.031,0,0,1-1.98.5,11.875,11.875,0,0,1-1.925.165,9.712,9.712,0,0,1-3.8-.715,9.123,9.123,0,0,1-3.08-2.035,9.429,9.429,0,0,1-2.09-3.245,11.994,11.994,0,0,1-.77-4.346,13.176,13.176,0,0,1,.605-3.905,8.783,8.783,0,0,1,1.815-3.3,8.2,8.2,0,0,1,2.97-2.255,9.434,9.434,0,0,1,4.071-.825,10.731,10.731,0,0,1,4.181.715,7.957,7.957,0,0,1,2.915,2.035,8.408,8.408,0,0,1,1.705,3.08A23.677,23.677,0,0,1,85.412,24.991Zm-3.135-.935a7.407,7.407,0,0,0-.55-2.53,5.2,5.2,0,0,0-1.21-1.98,4.713,4.713,0,0,0-1.925-1.265,7.808,7.808,0,0,0-2.64-.44,5.517,5.517,0,0,0-2.365.5,5.685,5.685,0,0,0-1.87,1.375,8.117,8.117,0,0,0-1.265,1.98,8.681,8.681,0,0,0-.605,2.42H82.277Z" transform="translate(-29.965 -6.839)" fill="#6ca4da"/>
    <path id="Path_3295" data-name="Path 3295" d="M119.957,21.981a5.031,5.031,0,0,0-.33-1.925,2.987,2.987,0,0,0-.935-1.21,3.812,3.812,0,0,0-1.43-.66,9.187,9.187,0,0,0-1.87-.22,17.885,17.885,0,0,0-1.815.11,5.867,5.867,0,0,0-1.485.385,8.776,8.776,0,0,0-1.265.55,6.189,6.189,0,0,0-1.155.66,1.56,1.56,0,0,1-.715.22,1.119,1.119,0,0,1-.825-.33,1.086,1.086,0,0,1-.33-.77.99.99,0,0,1,.385-.825,7.91,7.91,0,0,1,3.135-1.76,14.31,14.31,0,0,1,4.236-.605,11.13,11.13,0,0,1,3.135.385,6.42,6.42,0,0,1,2.365,1.21,5.914,5.914,0,0,1,1.54,2.09,8.339,8.339,0,0,1,.55,3.08V34.357a1.145,1.145,0,0,1-.5,1.045,1.876,1.876,0,0,1-1.045.385,1.811,1.811,0,0,1-1.045-.33,1.145,1.145,0,0,1-.5-1.045V32.6a5.229,5.229,0,0,1-1.1,1.54,8.051,8.051,0,0,1-1.54,1.155,7.723,7.723,0,0,1-1.87.715,8.249,8.249,0,0,1-2.035.22,8.636,8.636,0,0,1-2.7-.385,6.69,6.69,0,0,1-2.145-1.155,5.313,5.313,0,0,1-1.43-1.87,6.112,6.112,0,0,1-.55-2.53,5.476,5.476,0,0,1,.825-3.08,6.251,6.251,0,0,1,2.255-2.035,12.047,12.047,0,0,1,3.52-1.1,28.459,28.459,0,0,1,4.511-.33h1.1a8.123,8.123,0,0,1,1.155.055V21.981Zm0,4.071c-.605.055-1.265.055-1.98.055s-1.485,0-2.2.055a14.149,14.149,0,0,0-2.2.275,5.041,5.041,0,0,0-1.87.66,3.5,3.5,0,0,0-1.32,1.21,3.451,3.451,0,0,0-.5,1.925,3.349,3.349,0,0,0,.33,1.54,3.564,3.564,0,0,0,.935,1.1,4.567,4.567,0,0,0,1.375.66,5.678,5.678,0,0,0,1.65.22,7.1,7.1,0,0,0,2.2-.385,5.023,5.023,0,0,0,1.815-1.1,5.364,5.364,0,0,0,1.265-1.76,7.229,7.229,0,0,0,.55-2.64V26.051Z" transform="translate(-48.008 -7.019)" fill="#6ca4da"/>
    <path id="Path_3296" data-name="Path 3296" d="M147.5,17.325a1.311,1.311,0,0,1,.5-1.1,1.778,1.778,0,0,1,1.21-.385,1.343,1.343,0,0,1,1.485,1.485v1.76a6.72,6.72,0,0,1,.77-1.54,5.482,5.482,0,0,1,1.1-1.155,4.421,4.421,0,0,1,1.54-.715,7.589,7.589,0,0,1,2.035-.275,1.712,1.712,0,0,1,1.21.44,1.328,1.328,0,0,1,0,1.87,1.621,1.621,0,0,1-1.21.44,5.964,5.964,0,0,0-2.31.44,5.353,5.353,0,0,0-1.705,1.21,5.412,5.412,0,0,0-1.045,1.925,7.731,7.731,0,0,0-.385,2.585V34.1a1.245,1.245,0,0,1-.5,1.1,2.047,2.047,0,0,1-1.1.385,2.339,2.339,0,0,1-.605-.11,2.23,2.23,0,0,1-.5-.275.856.856,0,0,1-.33-.44,1.191,1.191,0,0,1-.11-.66V17.325Z" transform="translate(-66.365 -6.929)" fill="#6ca4da"/>
    <path id="Path_3297" data-name="Path 3297" d="M174.555,2.15a1.465,1.465,0,0,1,.165-.66,1.975,1.975,0,0,1,.385-.55,1.141,1.141,0,0,1,.55-.33,1.4,1.4,0,0,1,.66-.11h9.131a12.1,12.1,0,0,1,3.52.5,8.145,8.145,0,0,1,2.75,1.43,6.525,6.525,0,0,1,2.475,5.226,5.814,5.814,0,0,1-.44,2.2,5.931,5.931,0,0,1-1.155,1.87,6.473,6.473,0,0,1-1.76,1.43,7.019,7.019,0,0,1-2.2.825v.055a10.688,10.688,0,0,1,2.75.825,6.53,6.53,0,0,1,2.09,1.485,6.115,6.115,0,0,1,1.32,2.145,7.124,7.124,0,0,1,.5,2.7,7.843,7.843,0,0,1-.5,2.75,5.957,5.957,0,0,1-1.65,2.42,9.339,9.339,0,0,1-3.025,1.76,13.121,13.121,0,0,1-4.346.66H176.26a2.761,2.761,0,0,1-.66-.11,1.932,1.932,0,0,1-.935-.935,1.464,1.464,0,0,1-.165-.66V2.15Zm3.52,1.045v9.681h5.886a11.653,11.653,0,0,0,2.42-.275,6.393,6.393,0,0,0,2.09-.825,4.433,4.433,0,0,0,1.485-1.54,4.231,4.231,0,0,0,.55-2.31,4.307,4.307,0,0,0-.55-2.365,4.784,4.784,0,0,0-1.485-1.485,6.164,6.164,0,0,0-2.145-.715,18,18,0,0,0-2.475-.22h-5.776Zm0,22.938h6a19.21,19.21,0,0,0,3.245-.22,7.046,7.046,0,0,0,2.365-.825,3.612,3.612,0,0,0,1.485-1.65,5.853,5.853,0,0,0,.5-2.585A5.089,5.089,0,0,0,191,18.1a4.538,4.538,0,0,0-1.87-1.65,8.72,8.72,0,0,0-2.86-.77q-1.65-.165-3.63-.165h-4.566Z" transform="translate(-78.513 -0.225)" fill="#6ca4da"/>
    <path id="Path_3298" data-name="Path 3298" d="M219.6,25.641a12.952,12.952,0,0,1,.605-3.74,9.464,9.464,0,0,1,1.815-3.355,8.872,8.872,0,0,1,3.08-2.365,9.733,9.733,0,0,1,4.346-.88,10.144,10.144,0,0,1,4.4.88,8.872,8.872,0,0,1,3.08,2.365,9.464,9.464,0,0,1,1.815,3.355,12.66,12.66,0,0,1,.605,3.74,12.66,12.66,0,0,1-.605,3.74,9.464,9.464,0,0,1-1.815,3.355,8.872,8.872,0,0,1-3.08,2.365,9.979,9.979,0,0,1-4.4.88,9.733,9.733,0,0,1-4.346-.88,9.231,9.231,0,0,1-4.9-5.721A10.882,10.882,0,0,1,219.6,25.641Zm3.41,0a11.643,11.643,0,0,0,.33,2.7,7.319,7.319,0,0,0,1.155,2.585,5.877,5.877,0,0,0,1.98,1.87,5.593,5.593,0,0,0,2.915.715,5.662,5.662,0,0,0,2.97-.715,5.876,5.876,0,0,0,1.98-1.87,7.815,7.815,0,0,0,1.1-2.585,10.946,10.946,0,0,0,0-5.336,8.341,8.341,0,0,0-1.1-2.585,5.876,5.876,0,0,0-1.98-1.87,5.662,5.662,0,0,0-2.97-.715,5.461,5.461,0,0,0-2.915.715,5.877,5.877,0,0,0-1.98,1.87A9.242,9.242,0,0,0,223.34,23,11.551,11.551,0,0,0,223.01,25.641Z" transform="translate(-98.805 -6.884)" fill="#6ca4da"/>
    <path id="Path_3299" data-name="Path 3299" d="M266.9,25.826,261.18,18.62a1.93,1.93,0,0,1-.275-.44,1.072,1.072,0,0,1-.055-.44,1.978,1.978,0,0,1,.11-.605,3.022,3.022,0,0,1,.385-.5,1.831,1.831,0,0,1,.55-.33,1.29,1.29,0,0,1,.605-.11,1.465,1.465,0,0,1,.66.165,1.719,1.719,0,0,1,.605.5l5.281,6.931,5.446-6.986a1.04,1.04,0,0,1,.55-.44,1.109,1.109,0,0,1,.605-.165,1.326,1.326,0,0,1,.99.385,1.259,1.259,0,0,1,.44.935,1.637,1.637,0,0,1-.275.825l-5.776,7.426,6.161,7.811a1.349,1.349,0,0,1,.33.88,1.627,1.627,0,0,1-.11.55,3.027,3.027,0,0,1-.385.5,1.141,1.141,0,0,1-.55.33,1.29,1.29,0,0,1-.605.11,1.465,1.465,0,0,1-.66-.165,1.719,1.719,0,0,1-.605-.5l-5.776-7.536-5.886,7.591a1.284,1.284,0,0,1-1.1.55,2.34,2.34,0,0,1-.605-.11,1.3,1.3,0,0,1-.5-.33.856.856,0,0,1-.33-.44.9.9,0,0,1-.11-.55,1.158,1.158,0,0,1,.275-.715Z" transform="translate(-117.117 -7.289)" fill="#6ca4da"/>
  </g>
  <path id="Path_3300" data-name="Path 3300" d="M0,14.632a20.436,20.436,0,0,1,.77-5.5A12.87,12.87,0,0,1,3.19,4.4,10.9,10.9,0,0,1,7.206,1.21,12.52,12.52,0,0,1,12.927,0a16.335,16.335,0,0,1,3.8.44A16.081,16.081,0,0,1,20.078,1.6a1.2,1.2,0,0,1,.66.605,2.361,2.361,0,0,1,.22.77,1.536,1.536,0,0,1-.33.99,1.175,1.175,0,0,1-.935.44,1.211,1.211,0,0,1-.44-.055,22.592,22.592,0,0,0-3.135-.935A14.347,14.347,0,0,0,13.2,3.08a9.478,9.478,0,0,0-3.19.5A7.849,7.849,0,0,0,7.591,4.9a7.591,7.591,0,0,0-1.76,1.98A12.439,12.439,0,0,0,4.621,9.3a14.838,14.838,0,0,0-.66,2.7,21.394,21.394,0,0,0-.22,2.585,14.48,14.48,0,0,0,.22,2.585,14.838,14.838,0,0,0,.66,2.7,9.069,9.069,0,0,0,1.21,2.42A7.432,7.432,0,0,0,7.591,24.2a8.538,8.538,0,0,0,2.42,1.32,9.478,9.478,0,0,0,3.19.5c.44,0,.935-.055,1.485-.11a8.77,8.77,0,0,0,1.65-.33c.55-.165,1.155-.33,1.705-.55a9.749,9.749,0,0,0,1.705-.825,2.682,2.682,0,0,1,.385-.165c.11,0,.22-.055.33-.055a1.172,1.172,0,0,1,.88.385,1.349,1.349,0,0,1,.33.88,1.747,1.747,0,0,1-.44,1.1,4.688,4.688,0,0,1-1.1.935,10.749,10.749,0,0,1-1.6.77,18.558,18.558,0,0,1-1.87.55,11.749,11.749,0,0,1-1.925.33c-.66.055-1.21.11-1.76.11a13.53,13.53,0,0,1-5.776-1.155A11.084,11.084,0,0,1,3.135,24.7,12.526,12.526,0,0,1,.77,20.023,19.947,19.947,0,0,1,0,14.632" fill="#6ca4da"/>
  <path id="Path_3301" data-name="Path 3301" d="M51.6,2.1a1.461,1.461,0,0,1,.5-1.21A1.681,1.681,0,0,1,53.2.5,2.339,2.339,0,0,1,53.8.61a2.23,2.23,0,0,1,.5.275.8.8,0,0,1,.33.5,1.523,1.523,0,0,1,.165.715V27.288a1.461,1.461,0,0,1-.5,1.21,1.747,1.747,0,0,1-1.1.44,1.681,1.681,0,0,1-1.1-.385,1.461,1.461,0,0,1-.5-1.21V2.1Z" transform="translate(-23.216 -0.225)" fill="#6ca4da"/>
  <path id="Path_3302" data-name="Path 3302" d="M85.412,24.991a1.482,1.482,0,0,1-.275.825,1.345,1.345,0,0,1-.99.33H69.9a10.766,10.766,0,0,0,.55,3.245,5.773,5.773,0,0,0,1.485,2.255,6.3,6.3,0,0,0,2.145,1.32,7.638,7.638,0,0,0,2.53.44,8.314,8.314,0,0,0,2.97-.55,12.777,12.777,0,0,0,2.97-1.54,1.647,1.647,0,0,1,.44-.22.936.936,0,0,1,.385-.055.95.95,0,0,1,.715.275,1.159,1.159,0,0,1,.275.715,1.036,1.036,0,0,1-.11.44,1.3,1.3,0,0,1-.33.5,13.357,13.357,0,0,1-1.76,1.32,8.669,8.669,0,0,1-1.925.88,13.031,13.031,0,0,1-1.98.5,11.875,11.875,0,0,1-1.925.165,9.712,9.712,0,0,1-3.8-.715,9.123,9.123,0,0,1-3.08-2.035,9.429,9.429,0,0,1-2.09-3.245,11.994,11.994,0,0,1-.77-4.346,13.176,13.176,0,0,1,.605-3.905,8.783,8.783,0,0,1,1.815-3.3,8.2,8.2,0,0,1,2.97-2.255,9.434,9.434,0,0,1,4.071-.825,10.731,10.731,0,0,1,4.181.715,7.957,7.957,0,0,1,2.915,2.035,8.408,8.408,0,0,1,1.705,3.08,23.677,23.677,0,0,1,.55,3.96m-3.135-.935a7.407,7.407,0,0,0-.55-2.53,5.2,5.2,0,0,0-1.21-1.98,4.713,4.713,0,0,0-1.925-1.265,7.808,7.808,0,0,0-2.64-.44,5.517,5.517,0,0,0-2.365.5,5.685,5.685,0,0,0-1.87,1.375,8.117,8.117,0,0,0-1.265,1.98,7.072,7.072,0,0,0-.55,2.42H82.277Z" transform="translate(-29.965 -6.839)" fill="#6ca4da"/>
  <path id="Path_3303" data-name="Path 3303" d="M119.957,21.981a5.031,5.031,0,0,0-.33-1.925,2.987,2.987,0,0,0-.935-1.21,3.812,3.812,0,0,0-1.43-.66,9.187,9.187,0,0,0-1.87-.22,17.885,17.885,0,0,0-1.815.11,5.867,5.867,0,0,0-1.485.385,8.776,8.776,0,0,0-1.265.55,6.189,6.189,0,0,0-1.155.66,1.56,1.56,0,0,1-.715.22,1.119,1.119,0,0,1-.825-.33,1.086,1.086,0,0,1-.33-.77,1.063,1.063,0,0,1,.385-.825,7.91,7.91,0,0,1,3.135-1.76,14.31,14.31,0,0,1,4.236-.605,11.13,11.13,0,0,1,3.135.385,6.42,6.42,0,0,1,2.365,1.21,5.914,5.914,0,0,1,1.54,2.09,8.339,8.339,0,0,1,.55,3.08V34.357a1.145,1.145,0,0,1-.5,1.045,1.876,1.876,0,0,1-1.045.385,1.811,1.811,0,0,1-1.045-.33,1.145,1.145,0,0,1-.5-1.045V32.6a5.229,5.229,0,0,1-1.1,1.54,8.051,8.051,0,0,1-1.54,1.155,7.723,7.723,0,0,1-1.87.715,8.249,8.249,0,0,1-2.035.22,8.636,8.636,0,0,1-2.7-.385,6.69,6.69,0,0,1-2.145-1.155,5.313,5.313,0,0,1-1.43-1.87,6.112,6.112,0,0,1-.55-2.53,5.476,5.476,0,0,1,.825-3.08,5.674,5.674,0,0,1,2.255-1.98,12.047,12.047,0,0,1,3.52-1.1,28.46,28.46,0,0,1,4.511-.33h1.1a8.124,8.124,0,0,1,1.155.055v-1.87Zm0,4.071c-.605.055-1.265.055-1.98.055s-1.485,0-2.2.055a14.149,14.149,0,0,0-2.2.275,5.041,5.041,0,0,0-1.87.66,3.108,3.108,0,0,0-1.32,1.21,3.451,3.451,0,0,0-.5,1.925,3.2,3.2,0,0,0,.33,1.54,3.564,3.564,0,0,0,.935,1.1,4.567,4.567,0,0,0,1.375.66,5.678,5.678,0,0,0,1.65.22,7.1,7.1,0,0,0,2.2-.385,5.023,5.023,0,0,0,1.815-1.1,5.079,5.079,0,0,0,1.265-1.815,7.175,7.175,0,0,0,.55-2.585V26.051Z" transform="translate(-48.008 -7.019)" fill="#6ca4da"/>
  <path id="Path_3304" data-name="Path 3304" d="M147.5,17.325a1.311,1.311,0,0,1,.5-1.1,1.778,1.778,0,0,1,1.21-.385,1.5,1.5,0,0,1,1.1.385,1.418,1.418,0,0,1,.385,1.1v1.76a6.72,6.72,0,0,1,.77-1.54,5.482,5.482,0,0,1,1.1-1.155,4.421,4.421,0,0,1,1.54-.715,7.589,7.589,0,0,1,2.035-.275,1.712,1.712,0,0,1,1.21.44,1.328,1.328,0,0,1,0,1.87,1.621,1.621,0,0,1-1.21.44,5.964,5.964,0,0,0-2.31.44,5.353,5.353,0,0,0-1.705,1.21,5.412,5.412,0,0,0-1.045,1.925,7.731,7.731,0,0,0-.385,2.585V34.1a1.245,1.245,0,0,1-.5,1.1,2.047,2.047,0,0,1-1.1.385,2.339,2.339,0,0,1-.605-.11,2.23,2.23,0,0,1-.5-.275.856.856,0,0,1-.33-.44,1.191,1.191,0,0,1-.11-.66V17.325Z" transform="translate(-66.365 -6.929)" fill="#6ca4da"/>
  <path id="Path_3305" data-name="Path 3305" d="M174.6,2.15a1.465,1.465,0,0,1,.165-.66,1.976,1.976,0,0,1,.385-.55,1.141,1.141,0,0,1,.55-.33,1.4,1.4,0,0,1,.66-.11h9.131a12.1,12.1,0,0,1,3.52.5,8.145,8.145,0,0,1,2.75,1.43,6.525,6.525,0,0,1,2.475,5.226,5.815,5.815,0,0,1-.44,2.2,5.932,5.932,0,0,1-1.155,1.87,7.146,7.146,0,0,1-1.705,1.43,7.018,7.018,0,0,1-2.2.825v.11a10.688,10.688,0,0,1,2.75.825,6.529,6.529,0,0,1,2.09,1.485,6.115,6.115,0,0,1,1.32,2.145,7.124,7.124,0,0,1,.5,2.7,7.843,7.843,0,0,1-.5,2.75,5.956,5.956,0,0,1-1.65,2.42,9.339,9.339,0,0,1-3.025,1.76,13.121,13.121,0,0,1-4.346.66H176.36a2.761,2.761,0,0,1-.66-.11,1.258,1.258,0,0,1-.55-.385,1.975,1.975,0,0,1-.385-.55,1.465,1.465,0,0,1-.165-.66ZM178.12,3.2v9.681h5.886a11.653,11.653,0,0,0,2.42-.275,6.392,6.392,0,0,0,2.09-.825A4.433,4.433,0,0,0,190,10.236a4.231,4.231,0,0,0,.55-2.31A4.307,4.307,0,0,0,190,5.561a4.784,4.784,0,0,0-1.485-1.485,6.164,6.164,0,0,0-2.145-.715,18,18,0,0,0-2.475-.22H178.12Zm0,22.938h6a19.211,19.211,0,0,0,3.245-.22,7.046,7.046,0,0,0,2.365-.825,3.612,3.612,0,0,0,1.485-1.65,5.852,5.852,0,0,0,.5-2.585,5.089,5.089,0,0,0-.66-2.75,4.538,4.538,0,0,0-1.87-1.65,8.358,8.358,0,0,0-2.86-.77q-1.65-.165-3.63-.165H178.12Z" transform="translate(-78.558 -0.225)" fill="#6ca4da"/>
  <path id="Path_3306" data-name="Path 3306" d="M219.5,25.686A12.306,12.306,0,0,1,220.105,22a9.464,9.464,0,0,1,1.815-3.355A8.872,8.872,0,0,1,225,16.28a9.733,9.733,0,0,1,4.346-.88,10.144,10.144,0,0,1,4.4.88,8.871,8.871,0,0,1,3.08,2.365A9.463,9.463,0,0,1,238.642,22a12.594,12.594,0,0,1,.605,3.685,12.66,12.66,0,0,1-.605,3.74,9.463,9.463,0,0,1-1.815,3.355,8.871,8.871,0,0,1-3.08,2.365,9.979,9.979,0,0,1-4.4.88,9.733,9.733,0,0,1-4.346-.88,9.231,9.231,0,0,1-4.9-5.721,12.379,12.379,0,0,1-.605-3.74m3.41,0a9.386,9.386,0,0,0,.385,2.7,7.319,7.319,0,0,0,1.155,2.585,6.434,6.434,0,0,0,1.98,1.87,5.593,5.593,0,0,0,2.915.715,5.662,5.662,0,0,0,2.97-.715,5.876,5.876,0,0,0,1.98-1.87,7.816,7.816,0,0,0,1.1-2.585,11.8,11.8,0,0,0,.385-2.7,9.292,9.292,0,0,0-.385-2.64,8.341,8.341,0,0,0-1.1-2.585,5.876,5.876,0,0,0-1.98-1.87,5.662,5.662,0,0,0-2.97-.715,5.333,5.333,0,0,0-2.915.715,5.876,5.876,0,0,0-1.98,1.87,10.017,10.017,0,0,0-1.54,5.226" transform="translate(-98.76 -6.929)" fill="#6ca4da"/>
  <path id="Path_3307" data-name="Path 3307" d="M266.891,25.826,261.17,18.62c-.11-.165-.22-.275-.22-.44a1.073,1.073,0,0,1-.055-.44,1.978,1.978,0,0,1,.11-.605,3.025,3.025,0,0,1,.385-.5,1.141,1.141,0,0,1,.55-.33,1.29,1.29,0,0,1,.605-.11,1.465,1.465,0,0,1,.66.165,1.72,1.72,0,0,1,.605.5l5.281,6.931,5.446-6.986a1.04,1.04,0,0,1,.55-.44,1.088,1.088,0,0,1,.605-.11,1.326,1.326,0,0,1,.99.385,1.259,1.259,0,0,1,.44.935,1.637,1.637,0,0,1-.275.825l-5.776,7.426,6.161,7.811a1.349,1.349,0,0,1,.33.88,1.627,1.627,0,0,1-.11.55,3.024,3.024,0,0,1-.385.5,1.142,1.142,0,0,1-.55.33,1.29,1.29,0,0,1-.605.11,1.465,1.465,0,0,1-.66-.165,1.72,1.72,0,0,1-.605-.5l-5.776-7.536L262.93,35.4a1.257,1.257,0,0,1-1.045.55,1.627,1.627,0,0,1-.55-.11.99.99,0,0,1-.5-.33.855.855,0,0,1-.33-.44,1.192,1.192,0,0,1,.165-1.265Z" transform="translate(-117.162 -7.289)" fill="#6ca4da"/>
</svg>
