<svg id="forrester" xmlns="http://www.w3.org/2000/svg" width="191.856" height="31.264" viewBox="0 0 191.856 31.264">
  <path id="Path_3276" data-name="Path 3276" d="M238.477,14.5a5.485,5.485,0,0,1-1.066.059c-.947.059-2.783.059-6.395.059h-4.441c-3.671,0-5.447-.059-6.395-.059-.947-.059-.947-.059-1.066-.059-.414,0-.414.3-.414,1.125v3.257c0,.178,0,.592.355.592.414,0,.474-.118,1.125-1.48.414-.888,1.243-2.191,6.04-2.25.474,0,.711.118.711.888v16.52c0,1.362,0,2.309-1.776,2.428-.77.059-1.243.118-1.243.592,0,.533.474.533.77.533.651,0,3.553-.118,4.145-.118,1.184,0,3.02.118,4.2.118.3,0,.77,0,.77-.533s-.474-.592-1.243-.592c-1.776-.118-1.776-1.066-1.776-2.487V16.928c0-.947.118-1.125,1.125-1.184,4.382.118,5.211,1.362,5.625,2.25.651,1.3.711,1.48,1.125,1.48.355,0,.355-.414.355-.592V15.625c-.118-.829-.118-1.125-.533-1.125" transform="translate(-89.204 -5.914)" fill="#00563f"/>
  <path id="Path_3277" data-name="Path 3277" d="M175.612,31.079c-.3,0-.414.118-1.007,1.362-1.54,3.02-3.73,3.02-5.329,3.02-2.961,0-3.73-.414-3.73-2.9v-6.1c0-1.066.3-1.066,1.954-1.066,2.9,0,3.908.059,4.619,2.783.178.651.414.829.651.829.414,0,.414-.474.414-.711,0-.3-.118-1.54-.118-1.776,0-.77.237-4.441.237-4.915,0-.414-.178-.474-.414-.474-.178,0-.355.059-.533.533-.651,1.895-.947,2.665-4.855,2.665-2.072,0-2.072-.3-2.072-1.421V17.757c0-1.776.118-2.013,1.895-2.013,5.033,0,5.862,1.362,6.276,2.25.651,1.3.711,1.48,1.066,1.48s.355-.414.355-.592V15.625c0-.829,0-1.125-.414-1.125a5.484,5.484,0,0,1-1.066.059c-.947.059-2.783.059-6.395.059h-1.717c-3.02,0-4.559-.059-5.329-.059-.77-.059-.829-.059-.888-.059-.237,0-.711,0-.711.474,0,.533.474.592,1.3.592,1.776.118,1.776,1.066,1.776,2.487V32.974c0,1.48,0,2.428-1.776,2.487-.77.059-1.3.118-1.3.592,0,.533.474.533.77.533.237,0,.533-.059,1.125-.059.592-.059,1.48-.059,2.9-.059h.414c.237,0,1.895.059,3.908.059,2.072.059,4.5.059,6.336.059,1.007,0,1.362-.414,1.421-1.066.118-1.3.474-3.553.474-4.026.237-.118.118-.414-.237-.414" transform="translate(-64.65 -5.914)" fill="#00563f"/>
  <path id="Path_3278" data-name="Path 3278" d="M273.212,31.079c-.3,0-.414.118-1.007,1.362-1.54,3.02-3.73,3.02-5.329,3.02-2.961,0-3.73-.414-3.73-2.9v-6.1c0-1.066.3-1.066,1.954-1.066,2.9,0,3.908.059,4.618,2.783.178.651.414.829.651.829.414,0,.414-.474.414-.711,0-.3-.118-1.54-.118-1.776,0-.77.237-4.441.237-4.915,0-.414-.178-.474-.414-.474-.178,0-.355.059-.533.533-.651,1.895-.947,2.665-4.855,2.665-2.072,0-2.072-.3-2.072-1.421V17.757c0-1.776.118-2.013,1.895-2.013,5.033,0,5.862,1.362,6.276,2.25.651,1.3.711,1.48,1.066,1.48s.355-.414.355-.592V15.625c0-.829,0-1.125-.414-1.125a5.484,5.484,0,0,1-1.066.059c-.947.059-2.783.059-6.395.059h-1.717c-3.02,0-4.559-.059-5.329-.059-.77-.059-.829-.059-.888-.059-.237,0-.711,0-.711.474,0,.533.474.592,1.3.592,1.776.118,1.776,1.066,1.776,2.487V32.974c0,1.48,0,2.428-1.776,2.487-.77.059-1.3.118-1.3.592,0,.533.474.533.77.533.237,0,.533-.059,1.125-.059.592-.059,1.48-.059,2.9-.059h.414c.237,0,1.895.059,3.908.059,2.072.059,4.5.059,6.336.059,1.007,0,1.362-.414,1.421-1.066.118-1.3.474-3.553.474-4.026.178-.118.059-.414-.237-.414" transform="translate(-104.459 -5.914)" fill="#00563f"/>
  <path id="Path_3279" data-name="Path 3279" d="M200.794,22.841c-2.9-1.184-4.974-2.072-4.974-4.678a3.591,3.591,0,0,1,3.908-3.434c3.02,0,3.671,2.013,4.086,3.434.355,1.125.533,1.362.888,1.362.533,0,.533-.3.533-1.066,0-3.2,0-3.493-.414-3.73a14.388,14.388,0,0,0-4.737-.829c-4.559,0-7.105,2.9-7.105,6.217,0,3.849,2.842,5.211,5.8,6.513,2.605,1.184,5.033,2.546,5.033,5.388,0,2.9-2.842,3.908-4.382,3.908-2.546,0-5.033-2.191-5.744-5.329-.059-.3-.118-.711-.414-.711-.414,0-.474.533-.474.651,0,1.3.118,2.842.178,3.316.118.888.237,1.6.651,1.895a9.7,9.7,0,0,0,5.27,1.184c4.8,0,7.757-3.375,7.757-7.342-.059-4.145-3.849-5.921-5.862-6.75" transform="translate(-78.64 -5.67)" fill="#00563f"/>
  <path id="Path_3280" data-name="Path 3280" d="M54.2,13.8C47.27,13.8,42,18.774,42,25.287c0,6.869,5.8,11.605,12.079,11.605a12.035,12.035,0,0,0,12.02-11.9c0-6.276-5.211-11.191-11.9-11.191m.178,22.086c-4.737,0-8.171-5.507-8.171-11.369,0-5.092,3.2-9.711,7.579-9.711,5.625,0,8.112,6.04,8.112,10.3,0,5.211-2.605,10.777-7.52,10.777" transform="translate(-17.131 -5.629)" fill="#00563f"/>
  <path id="Path_3281" data-name="Path 3281" d="M22.619,0a9.309,9.309,0,0,1-1.48.118c-1.3.059-4.026.059-9.3.059H10.717c-5.092,0-6.928,0-8.29-.059A12.8,12.8,0,0,1,1.007,0C.651,0,0,0,0,.711s.77.77,1.836.888c2.546.178,2.546,1.54,2.546,3.612v21.2c0,1.717,0,2.9-2.191,3.02-.888.059-1.54.118-1.54.77s.592.651.888.651c.829,0,4.441-.178,5.151-.178,1.421,0,3.79.178,5.211.178.355,0,.888,0,.888-.651s-.592-.711-1.54-.77c-2.191-.118-2.191-1.3-2.191-3.079V18.474c0-1.48,0-2.013.829-2.25a28.972,28.972,0,0,1,4.382-.178c1.3,0,4.559,0,5.27,2.783.118.237.414,1.6.592,1.954.059.237.3.829.829.829.592,0,.592-.592.592-.947l-.178-2.428a23.938,23.938,0,0,1-.118-2.487c0-.77.178-4.263.178-4.974,0-.533-.178-.829-.592-.888-.474,0-.711.414-.829.829-.651,2.665-1.362,3.79-5.507,3.79-.77,0-3.79,0-4.559-.118-.651-.118-.829-.178-.829-2.9V4.322c.118-2.428.947-2.546,2.724-2.546,7.934,0,8.645,1.066,10.125,4.5.178.414.414,1.007.947,1.007.592,0,.592-.829.592-.947V.947c0-.711-.059-.947-.888-.947" fill="#00563f"/>
  <path id="Path_3282" data-name="Path 3282" d="M103.936,35.679c-1.007-.118-1.48-1.007-2.191-2.25l-3.434-6.1c-.829-1.48-1.243-1.717-1.717-1.954,1.184-.237,4.855-1.125,4.855-5.211,0-1.243-.533-5.566-6.809-5.566-1.066,0-5.744.118-6.75.118-.414,0-2.132-.118-2.487-.118-1.184,0-1.3,0-1.3.474s.474.533,1.3.592c1.717.118,1.717,1.066,1.717,2.487V33.133c0,1.48,0,2.428-1.717,2.546-.77.059-1.3.059-1.3.592s.474.474.77.474c.651,0,3.493-.118,4.086-.118.118,0,3.553.118,4.263.118.3,0,.77.059.77-.474s-.474-.592-1.3-.592c-1.776-.118-1.776-1.066-1.776-2.546V26.8c0-.592.059-.829.651-.829,1.6,0,1.776.118,2.546,1.658l4.263,8.053c.414.77.533,1.066,1.184,1.066h4.678c.237,0,.592-.059.592-.414,0-.414-.178-.533-.888-.651M92.686,25.021c-1.776,0-1.776-.059-1.776-1.3V17.8c0-1.362.059-2.25,1.658-2.25,4.382,0,4.855,3.79,4.855,5.033.059,4.441-3.493,4.441-4.737,4.441" transform="translate(-34.303 -5.955)" fill="#00563f"/>
  <path id="Path_3283" data-name="Path 3283" d="M141.436,35.679c-1.007-.118-1.48-1.007-2.191-2.25l-3.434-6.1c-.829-1.48-1.243-1.717-1.717-1.954,1.184-.237,4.855-1.125,4.855-5.211,0-1.243-.533-5.566-6.809-5.566-1.066,0-5.744.118-6.75.118-.414,0-2.132-.118-2.487-.118-1.184,0-1.3,0-1.3.474s.474.533,1.3.592c1.717.118,1.717,1.066,1.717,2.487V33.133c0,1.48,0,2.428-1.717,2.546-.77.059-1.3.059-1.3.592s.474.474.77.474c.651,0,3.493-.118,4.086-.118.118,0,3.553.118,4.263.118.3,0,.77.059.77-.474s-.474-.592-1.3-.592c-1.776-.118-1.776-1.066-1.776-2.546V26.8c0-.592.059-.829.651-.829,1.6,0,1.776.118,2.546,1.658l4.263,8.053c.414.77.533,1.066,1.184,1.066h4.678c.237,0,.592-.059.592-.414,0-.414-.178-.533-.888-.651m-11.25-10.658c-1.776,0-1.776-.059-1.776-1.3V17.8c0-1.362.059-2.25,1.658-2.25,4.382,0,4.855,3.79,4.855,5.033.059,4.441-3.493,4.441-4.737,4.441" transform="translate(-49.599 -5.955)" fill="#00563f"/>
  <path id="Path_3284" data-name="Path 3284" d="M308.836,35.679c-1.007-.118-1.48-1.007-2.191-2.25l-3.434-6.1c-.829-1.48-1.243-1.717-1.717-1.954,1.184-.237,4.855-1.125,4.855-5.211,0-1.243-.533-5.566-6.809-5.566-1.066,0-5.744.118-6.75.118-.414,0-2.132-.118-2.487-.118-1.184,0-1.3,0-1.3.474s.474.533,1.3.592c1.717.118,1.717,1.066,1.717,2.487V33.133c0,1.48,0,2.428-1.717,2.546-.77.059-1.3.059-1.3.592s.474.474.77.474c.651,0,3.493-.118,4.086-.118.118,0,3.553.118,4.263.118.3,0,.77.059.77-.474s-.474-.592-1.3-.592c-1.776-.118-1.776-1.066-1.776-2.546V26.8c0-.592.059-.829.651-.829,1.6,0,1.776.118,2.546,1.658l4.263,8.053c.414.77.533,1.066,1.184,1.066h4.678c.237,0,.592-.059.592-.414.059-.414-.118-.533-.888-.651m-11.25-10.658c-1.776,0-1.776-.059-1.776-1.3V17.8c0-1.362.059-2.25,1.658-2.25,4.382,0,4.855,3.79,4.855,5.033.059,4.441-3.434,4.441-4.737,4.441" transform="translate(-117.878 -5.955)" fill="#00563f"/>
</svg>
