<svg xmlns="http://www.w3.org/2000/svg" width="147.2" height="33.626" viewBox="0 0 147.2 33.626">
  <g id="gartner" transform="translate(0 0.005)">
    <path id="Path_3285" data-name="Path 3285" d="M147.2,10.9l-.4,5.1h-2.1a5.067,5.067,0,0,0-5.1,5.2V32.8h-5.9V10.9h5.6l.1,2.7c1.2-1.9,3.2-2.7,5.8-2.7Z" fill="#002856"/>
    <path id="Path_3286" data-name="Path 3286" d="M106.2,32.8h-5.9V21.3c0-2.4-.2-5.5-3.6-5.5-3.3,0-4.6,2.4-4.6,5.1V32.8H86.2V10.9h5.5l.1,2.8a7.428,7.428,0,0,1,6.6-3.3c6,0,7.8,4.3,7.8,8.7Z" fill="#002856"/>
    <path id="Path_3287" data-name="Path 3287" d="M83.6,27.7l-.4,5a14.655,14.655,0,0,1-4.2.5c-5.6,0-7.2-2.6-7.2-7.7V4.8h5.9V11h5.9l-.4,5H77.7v9c0,2.1.6,3.2,2.7,3.2a8.076,8.076,0,0,0,3.2-.5" fill="#002856"/>
    <path id="Path_3288" data-name="Path 3288" d="M69.9,10.9,69.4,16H67.8a4.983,4.983,0,0,0-5,5.2V32.8H56.9V10.9h5.6l.1,2.7c1.2-1.9,3.2-2.7,5.8-2.7Z" fill="#002856"/>
    <path id="Path_3289" data-name="Path 3289" d="M30.2,30.4a24.994,24.994,0,0,1-13.3,3.2C7.1,33.3,0,27.2,0,17,0,6.7,7.1.2,16.9,0c4.9-.1,9.4,1.2,12.8,4.2L25.5,8.4a12.767,12.767,0,0,0-9-2.7c-6.1.3-9.8,4.8-9.9,10.9C6.5,23.2,10.6,27.8,17,28a14.442,14.442,0,0,0,7-1.2V20H17.4l.4-5.6H30.2S30.2,30.4,30.2,30.4Z" fill="#002856"/>
    <path id="Path_3290" data-name="Path 3290" d="M131.1,24H114.9a5.47,5.47,0,0,0,5.4,4.6c2.7.1,4.2-.7,6.1-2.7l3.9,2.9a11.675,11.675,0,0,1-9.8,4.6c-6.6,0-11.5-4.6-11.5-11.5s4.9-11.5,11.3-11.5c7,0,10.9,4.3,10.9,11.8l-.1,1.8Zm-6-4.6c-.2-2.8-2.2-4.5-5.1-4.4a5.213,5.213,0,0,0-5.2,4.4Z" fill="#002856"/>
    <path id="Path_3291" data-name="Path 3291" d="M53.2,18.5V32.8H48l-.1-2.2c-1.6,2-4.2,2.7-6.9,2.7-4,0-7.8-2-7.9-6.6-.1-7.3,8.2-7.8,13.4-7.8h1v-.3c0-2.4-1.6-3.7-4.6-3.7a8.612,8.612,0,0,0-5.8,2.3l-3.4-3.5a14.955,14.955,0,0,1,9.8-3.5c6.7.2,9.7,3.3,9.7,8.3m-5.7,4.8h-.8c-2.8,0-7.7.1-7.7,3.1,0,4.1,8.5,2.8,8.5-2.2Z" fill="#002856"/>
  </g>
</svg>
