<svg xmlns="http://www.w3.org/2000/svg" width="109.031" height="51.568" viewBox="0 0 109.031 51.568">
  <g id="nielsen-norman" transform="translate(0 -0.022)">
    <path id="Path_3314" data-name="Path 3314" d="M0,44.3V8.1H7.6l9.7,21.436h.062V8.1h6.363V44.3H17.05L6.425,20.949H6.3V44.3Z" transform="translate(0 -3.088)"/>
    <path id="Path_3315" data-name="Path 3315" d="M57.7,44.3V8.1h7.6L75,29.536h.124V8.1h6.3V44.3h-6.61L64.125,20.949h-.062V44.3Z" transform="translate(-22.056 -3.088)" fill="#ee4023"/>
    <path id="Path_3316" data-name="Path 3316" d="M153.132,33.716c0,3.336-1.483,5-4.51,5-3.15,0-4.818-1.668-4.818-4.88,0-3.459,1.606-5.065,4.695-5.065C151.834,28.836,153.132,30.318,153.132,33.716Zm3.089-6.8c-3.027,0-3.83-1.421-7.6-1.421-5.436,0-9.2,3.459-9.2,8.463a7.678,7.678,0,0,0,5.621,7.228c-3.4,1.05-4.51,2.224-4.51,4.262,0,2.286,1.791,3.645,4.695,3.645.8,0,2.842-.062,3.83-.062,2.471,0,3.954.247,4.88.927a3.4,3.4,0,0,1,1.359,3.027c0,3.089-2.224,4.386-6.054,4.386a10.236,10.236,0,0,1-5.065-1.174,3.215,3.215,0,0,1-1.421-2.9,5.229,5.229,0,0,1,.68-2.286l-4.139.371a6.949,6.949,0,0,0-.494,2.656c0,3.583,3.027,6.363,10.81,6.363,6.054,0,9.946-2.409,9.946-7.845a6.038,6.038,0,0,0-2.78-5.313c-1.483-1.05-3.089-1.421-5.992-1.421h-4.015c-1.235,0-1.977-.432-1.977-1.174,0-.865,1.174-1.668,4.509-2.9a8.456,8.456,0,0,0,4.633-1.112,8.12,8.12,0,0,0,3.706-6.857,6.631,6.631,0,0,0-1.483-4.262,4.562,4.562,0,0,0,1.73.309,6.6,6.6,0,0,0,4.2-1.483l-2.409-2.409A6.405,6.405,0,0,1,156.22,26.921Z" transform="translate(-53.058 -9.739)"/>
    <g id="Group_14" data-name="Group 14" transform="translate(66.668 0.023)">
      <path id="Path_3317" data-name="Path 3317" d="M109.144,51.59a.784.784,0,0,1-.371-.062,1.278,1.278,0,0,1-.8-1.544l16-49.11a1.278,1.278,0,0,1,1.544-.8,1.278,1.278,0,0,1,.8,1.544l-16,49.11A1.328,1.328,0,0,1,109.144,51.59Z" transform="translate(-107.923 -0.023)"/>
    </g>
  </g>
</svg>
