<svg width="101" height="101" viewBox="0 0 101 101" fill="none" xmlns="http://www.w3.org/2000/svg">
    <g clip-path="url(#clip0_16535_7670)">
        <path d="M50.4573 100.5C22.9594 100.5 0.5 78.0406 0.5 50.4573C0.5 22.9594 22.9594 0.5 50.4573 0.5C77.9552 0.5 100.415 22.9594 100.415 50.4573C100.5 78.0406 78.0406 100.5 50.4573 100.5ZM50.4573 8.01495C27.0585 8.01495 8.01495 27.0585 8.01495 50.4573C8.01495 73.8561 27.0585 92.9851 50.5427 92.9851C74.0269 92.9851 93.0705 73.9415 93.0705 50.4573C93.0705 26.9731 73.9415 8.01495 50.4573 8.01495ZM46.7852 69.1593C45.7605 69.1593 44.8211 68.7323 44.1379 68.0491L29.1934 53.1046C27.7417 51.6529 27.7417 49.2617 29.1934 47.81C30.6452 46.3582 33.0363 46.3582 34.488 47.81L46.3582 59.6802L66.1704 33.2071C67.4513 31.5845 69.757 31.243 71.3796 32.4385C73.0021 33.6341 73.3437 36.0252 72.1482 37.6477L49.7741 67.5367C49.091 68.3907 48.1516 68.9031 47.0414 68.9885C46.956 69.1593 46.8706 69.1593 46.7852 69.1593Z" fill="#1C1C1B"/>
    </g>
    <defs>
        <clipPath id="clip0_16535_7670">
            <rect width="100" height="100" fill="white" transform="translate(0.5 0.5)"/>
        </clipPath>
    </defs>
</svg>