<?xml version="1.0" encoding="utf-8"?>
<!-- Generator: Adobe Illustrator 24.2.3, SVG Export Plug-In . SVG Version: 6.00 Build 0)  -->
<svg version="1.1" xmlns="http://www.w3.org/2000/svg" xmlns:xlink="http://www.w3.org/1999/xlink" x="0px" y="0px"
	 viewBox="0 0 300 80.2" style="enable-background:new 0 0 300 80.2;" xml:space="preserve">
<style type="text/css">
	.st0{fill:#112A3F;}
	.st1{fill:#3EC8ED;}
</style>
<g id="Layer_1">
</g>
<g id="Layer_2">
	<g>
		<path class="st0" d="M45.6,41.4V62c0-1.5,0-11.1,0-20.7C45.6,41.3,45.6,41.4,45.6,41.4z"/>
		<path class="st0" d="M29.4,45.4c0-0.1,0-0.1,0-0.2V24.7C29.4,26.1,29.4,35.8,29.4,45.4z"/>
		<path class="st1" d="M95,8.4c0,4.6-3.8,8.4-8.4,8.4c-4.6,0-8.4-3.8-8.4-8.4C78.2,3.8,82,0,86.6,0C91.3,0,95,3.8,95,8.4z"/>
		<g>
			<g>
				<path class="st0" d="M117.4,73c1.3-3,3.6-8.1,3.6-8.1c2.6,1.5,5.3,2.5,7.1,2.5c1.6,0,2.7-0.4,3.7-1.9l-18-45.2h16.9l9.2,27.7
					l7.6-24.4c0,0,0.9-3.3,4.1-3.3c1.9,0,13.6,0,13.6,0l-16.8,44.9c-4,10.7-8.3,15-17.5,15c-4.7,0-8.2-0.8-11.9-2.5
					C118.9,77.6,115.9,76.2,117.4,73z"/>
			</g>
			<path class="st0" d="M75,36.3c0,0,0,22.7,0,25.8c0,4.3-4.3,4.3-4.3,4.3H58.8V41.4c0-5-2.6-7.7-6.5-7.7c-3.8,0-6.7,2.7-6.7,7.6
				c0,0.1,0,0.1,0,0.2V62c0,4.3-4.3,4.3-4.3,4.3H29.4c0,0,0-2.5,0-6.3c-3,3.8-7.2,7.3-13.8,7.3C5.9,67.4,0,60.9,0,50.5
				c0,0,0-22.7,0-25.8c0-4.3,4.3-4.3,4.3-4.3h11.8v24.9c0,5,2.6,7.7,6.5,7.7c3.8,0,6.7-2.7,6.7-7.6c0-0.1,0-0.1,0-0.2V24.7
				c0-4.3,4.3-4.3,4.3-4.3h11.8v6.3c3-3.8,7.2-7.3,13.8-7.3C69.1,19.3,75,25.8,75,36.3z"/>
			<path class="st0" d="M78.7,50.4c0,0,0-22.7,0-25.8c0-4.3,4.3-4.3,4.3-4.3h11.8v16c0,0,0,22.7,0,25.8c0,4.3-4.3,4.3-4.3,4.3H78.7
				V50.4z"/>
			<path class="st0" d="M98.7,34.4c0,0,0-22.7,0-25.8c0-4.3,4.3-4.3,4.3-4.3h11.8v16c0,0,0,38.8,0,41.9c0,4.3-4.3,4.3-4.3,4.3H98.7
				V34.4z"/>
		</g>
		<g>
			<g>
				<path class="st0" d="M192.6,37.5h-1.8v-2.6c-0.1,0.3-0.3,0.8-0.7,1.3c-1.1,1.4-2.7,1.7-3.9,1.7c-2.8,0-4-1.8-4.4-2.7
					c-0.5-1.1-0.5-2.6-0.5-5.1v-7.2h1.8v7.6c0,3.2,0,5.7,3.3,5.7c0.8,0,2-0.1,3.1-1.2c1.3-1.3,1.3-2.9,1.3-5.6v-6.4h1.8V37.5z"/>
				<path class="st0" d="M207.8,37.5H206V30c0-2.8,0-3.7-0.6-4.5c-0.4-0.5-1.2-1.3-2.8-1.3c-1.7,0-2.6,0.6-3.4,1.7
					c-0.9,1.2-0.9,2.2-0.9,5.2v6.4h-1.8V22.9h1.8v2.6c0.5-1.5,2-2.9,4.6-2.9c0.8,0,2.7,0.1,4,1.7c0.9,1.3,1,2.4,1,5.6V37.5z"/>
			</g>
			<path class="st0" d="M213.4,37.5h-1.8V22.9h1.8V37.5z M213.4,19.5h-1.8v-2.8h1.8V19.5z"/>
			<g>
				<path class="st0" d="M220.4,34.4c0,1.4,0.5,1.8,1.2,1.8c0.6,0,1.4-0.4,2-0.9v1.8c-0.7,0.5-1.4,0.7-2.3,0.7
					c-2.6,0-2.6-1.5-2.6-4.3v-9.1h-3.1v-1.5h3.1v-6.2h1.7v6.2h3.2v1.5h-3.2V34.4z"/>
				<path class="st0" d="M236,28.8c-0.2-1.3-0.6-2.5-1.5-3.5c-0.6-0.6-1.6-1.1-3-1.1c-2.5,0-4.3,1.8-4.7,4.6H236z M238,33.7
					c-0.2,0.5-0.6,1.3-1.4,2.2c-0.4,0.5-1.8,2-5,2c-4.8,0-6.9-3.7-6.9-7.8c0-4.8,3.2-7.5,6.7-7.5c4.4,0,6.7,3.9,6.6,7.6h-11.3
					c0,0.8,0,1.9,0.5,3c1.2,3,3.9,3,4.5,3c1.6,0,3.4-0.6,4.7-3.1L238,33.7z"/>
				<path class="st0" d="M258.8,22.9l-6.6,16.7c-1.1,2.7-1.2,3-1.5,3.6c-0.7,1.1-1.4,1.7-2.7,1.7c-1,0-1.7-0.4-2-0.6v-1.8
					c0.9,0.6,1.5,0.7,1.9,0.7c0.9,0,1.3-0.5,1.8-1.7c0.1-0.3,0.6-1.6,0.8-1.8l0.8-2.1l-5-14.6h1.7l4.3,12.4l4.7-12.4H258.8z"/>
				<path class="st0" d="M266.2,24.1c-1.3,0-2.5,0.5-3.4,1.5c-1.3,1.5-1.4,3.6-1.4,4.8c0,4.2,2.1,5.8,4.7,5.8c3.2,0,4.7-2.5,4.7-5.9
					C270.8,29.5,270.9,24.1,266.2,24.1 M266.1,37.9c-4.3,0-6.6-3.4-6.6-7.5c0-3.8,1.9-7.8,6.6-7.8c4.6,0,6.6,3.8,6.6,7.6
					C272.8,34.6,270.2,37.9,266.1,37.9"/>
				<path class="st0" d="M287,37.5h-1.8v-2.6c-0.1,0.3-0.3,0.8-0.7,1.3c-1.1,1.4-2.7,1.7-3.9,1.7c-2.8,0-4-1.8-4.4-2.7
					c-0.5-1.1-0.5-2.6-0.5-5.1v-7.2h1.8v7.6c0,3.2,0,5.7,3.3,5.7c0.8,0,2-0.1,3.1-1.2c1.3-1.3,1.3-2.9,1.3-5.6v-6.4h1.8V37.5z"/>
				<path class="st0" d="M292.7,37.5h-1.8V22.9h1.8v2.3c0.9-1.9,2.4-2.6,4.3-2.6c0.4,0,0.6,0,1,0.1v1.6c-0.6-0.1-0.6-0.1-1.1-0.1
					c-0.5,0-1.9,0-3,1.2c-1.1,1.3-1.1,2.8-1.2,5.8V37.5z"/>
				<path class="st0" d="M191.6,56c-0.2-1.3-0.6-2.5-1.5-3.5c-0.6-0.6-1.6-1.1-3-1.1c-2.5,0-4.3,1.8-4.7,4.6H191.6z M193.6,60.9
					c-0.2,0.5-0.6,1.3-1.4,2.2c-0.4,0.5-1.8,2-5,2c-4.8,0-6.9-3.7-6.9-7.8c0-4.8,3.2-7.5,6.7-7.5c4.4,0,6.7,3.9,6.6,7.6h-11.3
					c0,0.8,0,1.9,0.5,3c1.2,3,3.9,3,4.5,3c1.6,0,3.4-0.6,4.7-3.1L193.6,60.9z"/>
				<path class="st0" d="M207.9,64.7h-1.8v-7.6c0-2.8,0-3.7-0.6-4.5c-0.4-0.5-1.2-1.3-2.8-1.3c-1.7,0-2.6,0.6-3.4,1.7
					c-0.9,1.2-0.9,2.2-0.9,5.2v6.4h-1.8V50.1h1.8v2.6c0.5-1.5,2-2.9,4.6-2.9c0.8,0,2.7,0.1,4,1.7c0.9,1.3,1,2.4,1,5.6V64.7z"/>
				<path class="st0" d="M214.6,61.6c0,1.4,0.5,1.8,1.2,1.8c0.6,0,1.4-0.4,2-0.9v1.8c-0.7,0.5-1.4,0.7-2.3,0.7
					c-2.6,0-2.6-1.5-2.6-4.3v-9.1h-3.1v-1.5h3.1v-6.2h1.7v6.2h3.2v1.5h-3.2V61.6z"/>
				<path class="st0" d="M230.2,56c-0.2-1.3-0.6-2.5-1.5-3.5c-0.6-0.6-1.6-1.1-3-1.1c-2.5,0-4.3,1.8-4.7,4.6H230.2z M232.2,60.9
					c-0.2,0.5-0.6,1.3-1.4,2.2c-0.4,0.5-1.8,2-5,2c-4.8,0-6.9-3.7-6.9-7.8c0-4.8,3.2-7.5,6.7-7.5c4.4,0,6.7,3.9,6.6,7.6h-11.3
					c0,0.8,0,1.9,0.5,3c1.2,3,3.9,3,4.5,3c1.6,0,3.4-0.6,4.7-3.1L232.2,60.9z"/>
				<path class="st0" d="M237,64.7h-1.8V50.1h1.8v2.3c0.9-1.9,2.4-2.6,4.3-2.6c0.4,0,0.6,0,1,0.1v1.6c-0.6-0.1-0.6-0.1-1.1-0.1
					c-0.5,0-1.9,0-3,1.2c-1.1,1.3-1.1,2.8-1.2,5.8V64.7z"/>
				<path class="st0" d="M246.3,60.2c0.6,2.4,2.3,3.2,3.9,3.2c3.5,0,4.5-3.7,4.5-6.1c0-3.2-1.4-5.8-4.5-5.8c-3.9,0-4.1,4.4-4.1,5.8
					C246.1,58.3,246.1,59.2,246.3,60.2 M244.3,50.1h1.8v2.4c0.2-0.5,0.4-0.8,0.9-1.3c0.9-0.9,2.2-1.3,3.5-1.3c4.7,0,6.1,4.6,6.1,7.6
					c0,3.9-2.1,7.6-6.1,7.6c-1.9,0-3.6-0.8-4.4-2.8v10.2h-1.8V50.1z"/>
				<path class="st0" d="M261.5,64.7h-1.8V50.1h1.8v2.3c0.9-1.9,2.4-2.6,4.3-2.6c0.4,0,0.6,0,1,0.1v1.6c-0.6-0.1-0.6-0.1-1.1-0.1
					c-0.5,0-1.9,0-3,1.2c-1.1,1.3-1.1,2.8-1.2,5.8V64.7z"/>
			</g>
			<path class="st0" d="M270.6,64.7h-1.8V50.1h1.8V64.7z M270.6,46.7h-1.8v-2.8h1.8V46.7z"/>
			<g>
				<path class="st0" d="M280.4,56.5c0.9,0.2,2.2,0.6,3.1,1.6c0.6,0.7,1,1.6,1,2.6c0,2.1-1.7,4.5-5.5,4.5c-1.9,0-3.1-0.6-3.7-1
					c-1-0.7-1.7-1.6-2.2-2.9l1.8-0.6c0.3,1.3,1.6,2.9,4.1,2.9c2.5,0,3.7-1.3,3.7-2.9c0-1.9-1.9-2.4-3.1-2.6
					c-0.6-0.1-1.2-0.2-1.7-0.4c-1.3-0.3-3.8-0.9-3.8-3.8c0-1.5,0.9-4.1,5.2-4.1c1.4,0,2.6,0.3,3.4,0.8c1.3,0.8,1.7,2,1.8,2.5
					l-1.7,0.4c-0.1-0.4-0.3-1.1-1.3-1.7c-0.6-0.4-1.4-0.5-2.3-0.5c-1.1,0-3.4,0.3-3.4,2.4c0,1.6,1.4,2,3.1,2.4L280.4,56.5z"/>
				<path class="st0" d="M297.9,56c-0.2-1.3-0.6-2.5-1.5-3.5c-0.6-0.6-1.6-1.1-3-1.1c-2.5,0-4.3,1.8-4.7,4.6H297.9z M300,60.9
					c-0.2,0.5-0.6,1.3-1.4,2.2c-0.4,0.5-1.8,2-5,2c-4.8,0-6.9-3.7-6.9-7.8c0-4.8,3.2-7.5,6.7-7.5c4.4,0,6.7,3.9,6.6,7.6h-11.3
					c0,0.8,0,1.9,0.5,3c1.2,3,3.9,3,4.5,3c1.6,0,3.4-0.6,4.7-3.1L300,60.9z"/>
			</g>
		</g>
	</g>
</g>
</svg>
