<svg xmlns="http://www.w3.org/2000/svg" width="40" height="40" viewBox="0 0 15 15" version="1.1" id="Building-Modern-2--Streamline-Streamline--3.0.svg"><desc>Building Modern 2 Streamline Icon: https://streamlinehq.com</desc>
	<path d="M3.86121 0.456075C3.7707599999999997 0.478035 3.660795 0.55308 3.60867 0.628395C3.52677 0.746745 3.525 0.7636949999999999 3.525 1.4281949999999999L3.525 2.042625 2.24625 3.533235C1.477275 4.42962 0.95094 5.055479999999999 0.925935 5.10318L0.884385 5.1825 0.884655 9.6975L0.88491 14.2125 0.9307049999999999 14.305860000000001C1.0103399999999998 14.468235 1.1464649999999998 14.55372 1.3275 14.555055C1.53876 14.556615 1.717215 14.419559999999999 1.76751 14.217105C1.7806199999999999 14.164335 1.785 13.094775 1.785 9.945855L1.785 5.745 3.9748649999999994 5.745L6.164745 5.745 6.168615 9.98625L6.172499999999999 14.2275 6.20751 14.295C6.294524999999999 14.46276 6.443325 14.555955 6.6225 14.55489C6.803414999999999 14.553825 6.9395999999999995 14.468354999999999 7.019295 14.305860000000001L7.06509 14.2125 7.065345 9.6975L7.065614999999999 5.1825 7.024065 5.103285C6.999194999999999 5.055885 6.4690199999999995 4.42545 5.703749999999999 3.5332649999999997L4.425 2.0424599999999997 4.425 1.4281199999999998C4.425 0.76371 4.42323 0.746745 4.34133 0.628395C4.28751 0.550605 4.178805 0.47814 4.08162 0.455265C3.981705 0.431745 3.96108 0.43182 3.86121 0.456075M3.14406 3.8746949999999996L2.320635 4.8374999999999995 3.14781 4.8413699999999995C3.60276 4.843515 4.347239999999999 4.843515 4.80219 4.8413699999999995L5.629365 4.8374999999999995 4.80594 3.8746949999999996C4.353045 3.34515 3.9791249999999994 2.9118749999999998 3.9749999999999996 2.9118749999999998C3.9708750000000004 2.9118749999999998 3.596955 3.34515 3.14406 3.8746949999999996M8.596739999999999 4.60464C8.28681 4.688655 8.029259999999999 4.94952 7.958055 5.251545C7.938179999999999 5.33592 7.93542 5.882805 7.935224999999999 9.78135L7.935 14.215215 7.98114 14.307525C8.06181 14.468969999999999 8.197515 14.55372 8.3775 14.555055C8.588759999999999 14.556615 8.767215 14.419559999999999 8.817509999999999 14.217105C8.83062 14.16432 8.834999999999999 13.064369999999998 8.834999999999999 9.818355C8.834999999999999 7.437765 8.840085 5.49 8.846295 5.49C8.852505 5.49 9.83631 5.81625 11.032545 6.2150099999999995L13.2075 6.940004999999999 13.215 10.583759999999998L13.2225 14.2275 13.257509999999998 14.295C13.344524999999999 14.46276 13.493324999999999 14.555955 13.6725 14.55489C13.852364999999999 14.553825 13.98813 14.469104999999999 14.068859999999999 14.307525L14.115 14.215215 14.115 10.511025C14.115 7.178699999999999 14.112615 6.79758 14.091225 6.714659999999999C14.030204999999999 6.4781249999999995 13.84635 6.249569999999999 13.635 6.147465C13.573125 6.11757 12.50451 5.754255 11.260304999999999 5.340089999999999L8.998095000000001 4.587059999999999 8.852805 4.5808349999999995C8.73957 4.575989999999999 8.68305 4.58124 8.596739999999999 4.60464M2.938275 6.6357C2.828415 6.674955 2.73456 6.763529999999999 2.68206 6.8774999999999995L2.6475 6.9525 2.6475 10.59L2.6475 14.2275 2.6825099999999997 14.295C2.769525 14.46276 2.918325 14.555955 3.0974999999999997 14.55489C3.277365 14.553825 3.4131299999999998 14.469104999999999 3.49386 14.307525L3.54 14.215215 3.53985 10.58385L3.5397 6.9525 3.504075 6.87597C3.4273049999999996 6.7110899999999996 3.27702 6.6149249999999995 3.0974999999999997 6.61581C3.03975 6.61608 2.968095 6.625035 2.938275 6.6357M4.6709700000000005 6.650024999999999C4.572975 6.69681 4.491045 6.77907 4.445925 6.87597L4.410299999999999 6.9525 4.41015 10.58385L4.41 14.215215 4.45614 14.307525C4.53681 14.468969999999999 4.672515 14.55372 4.8525 14.555055C5.06985 14.556659999999999 5.248905 14.414444999999999 5.294055 14.204355C5.3073 14.142705 5.31051 13.23753 5.307075 10.5375L5.3025 6.9525 5.267985 6.8774999999999995C5.22663 6.7876650000000005 5.161155 6.7164150000000005 5.07105 6.663209999999999C5.016345 6.630914999999999 4.98186 6.623054999999999 4.876049999999999 6.618735C4.76424 6.61416 4.73754 6.61824 4.6709700000000005 6.650024999999999M9.9975 7.954035C9.865395 8.008439999999998 9.785009999999998 8.08335 9.72909 8.204234999999999C9.69999 8.2671 9.6975 8.2986 9.6975 8.6025C9.6975 8.9064 9.69999 8.937899999999999 9.72909 9.000765C9.80436 9.163455 9.96474 9.27 10.134329999999999 9.27C10.26663 9.27 10.371794999999999 9.227355000000001 10.45752 9.138929999999998C10.582755 9.009749999999999 10.5825 9.010875 10.5825 8.6025C10.5825 8.262615 10.5807 8.239155 10.55022 8.1825C10.50846 8.10489 10.418355 8.015279999999999 10.3425 7.975935000000001C10.269689999999999 7.938179999999999 10.067235 7.925325 9.9975 7.954035M11.77491 7.948289999999999C11.66571 7.983629999999999 11.556975 8.07618 11.49978 8.1825C11.4693 8.239155 11.4675 8.262615 11.4675 8.6025C11.4675 9.010875 11.467244999999998 9.009749999999999 11.59248 9.138929999999998C11.809785 9.363075 12.186315 9.291659999999998 12.32091 9.000765C12.35001 8.937899999999999 12.3525 8.9064 12.3525 8.6025C12.3525 8.297054999999999 12.350114999999999 8.267339999999999 12.320445000000001 8.20317C12.242985 8.03565 12.10749 7.945365 11.924999999999999 7.939634999999999C11.863125 7.937699999999999 11.79558 7.941584999999999 11.77491 7.948289999999999M9.988275 10.1607C9.878415 10.199955 9.784559999999999 10.28853 9.732059999999999 10.4025C9.6993 10.473585 9.6975 10.494705 9.6975 10.8075C9.6975 11.18775 9.70665 11.224409999999999 9.831884999999998 11.346135C10.047465 11.555639999999999 10.383795000000001 11.50305 10.542525 11.235C10.582215 11.16798 10.582529999999998 11.165085000000001 10.58727 10.82607C10.591935 10.491074999999999 10.591335 10.483125 10.55547 10.404765C10.47864 10.236944999999999 10.328669999999999 10.139925 10.147499999999999 10.14081C10.089749999999999 10.14108 10.018095 10.150034999999999 9.988275 10.1607M11.72097 10.175025C11.62158 10.22247 11.540175 10.305075 11.49453 10.404765C11.458664999999998 10.483125 11.458065 10.491074999999999 11.46273 10.82607C11.46747 11.165085000000001 11.467785 11.16798 11.507475 11.235C11.666205 11.50305 12.002535 11.555639999999999 12.218115000000001 11.346135C12.34335 11.224409999999999 12.3525 11.18775 12.3525 10.8075C12.3525 10.494824999999999 12.350685 10.473555 12.317984999999998 10.4025C12.276629999999999 10.312664999999999 12.211155 10.241415 12.12105 10.18821C12.066345 10.155915 12.03186 10.148055 11.92605 10.143735C11.81424 10.139159999999999 11.78754 10.14324 11.72097 10.175025M10.063799999999999 12.34515C9.91677 12.370035 9.780495 12.48231 9.72609 12.623384999999999C9.70116 12.68802 9.6975 12.73875 9.6975 13.02C9.6975 13.389465 9.70572 13.422839999999999 9.82644 13.54356C9.923399999999999 13.64052 10.002255 13.672065 10.147499999999999 13.67199C10.24851 13.67193 10.279665 13.665555 10.344345 13.63167C10.386615 13.60953 10.448550000000001 13.560345 10.48197 13.522379999999998C10.579785 13.411259999999999 10.590045 13.361324999999999 10.589669999999998 12.998579999999999C10.589384999999998 12.71868 10.586025 12.675195 10.56036 12.61866C10.492094999999999 12.468255 10.375335 12.37383 10.22349 12.3462C10.174545 12.33729 10.134044999999999 12.330795 10.13349 12.33177C10.13295 12.33273 10.101584999999998 12.338759999999999 10.063799999999999 12.34515M11.805 12.350774999999999C11.66331 12.380714999999999 11.545065000000001 12.484515 11.48319 12.63327C11.449335 12.714675 11.449665 13.284329999999999 11.483625 13.383989999999999C11.514705000000001 13.475219999999998 11.61009 13.581615 11.705654999999998 13.63167C11.807235 13.684875 11.985584999999999 13.689119999999999 12.09 13.640835C12.175575 13.60125 12.273105 13.503689999999999 12.317805 13.412925C12.350805 13.34595 12.3525 13.32672 12.3525 13.02C12.3525 12.647445 12.34122 12.597779999999998 12.22944 12.47829C12.121665 12.363059999999999 11.966909999999999 12.316575 11.805 12.350774999999999" stroke="none" fill="#7D12FF" fill-rule="evenodd"></path>
</svg>