<svg xmlns="http://www.w3.org/2000/svg" width="50" height="50" viewBox="0 0 15 15" version="1.1" id="Trip-Pins--Streamline-Streamline--3.0.svg"><desc>Trip Pins Streamline Icon: https://streamlinehq.com</desc>
	<path d="M3.2475 0.450735C2.66958 0.51006 2.13813 0.716085 1.6724999999999999 1.06125C1.499205 1.189725 1.189725 1.499205 1.06125 1.6724999999999999C0.7036049999999999 2.154945 0.5032049999999999 2.68524 0.44901 3.2925C0.401175 3.828585 0.536145 4.338509999999999 0.9392999999999999 5.145C1.2898949999999998 5.846324999999999 1.8458700000000001 6.70614 2.56248 7.65525C2.69859 7.8355049999999995 2.842875 8.019029999999999 2.883135 8.06307C3.040755 8.235524999999999 3.278685 8.340975 3.5156699999999996 8.343375C3.6839099999999996 8.34507 3.783975 8.323125 3.9299999999999997 8.252474999999999C4.08462 8.177669999999999 4.2162 8.04246 4.494464999999999 7.672499999999999C5.530815 6.294644999999999 6.194579999999999 5.177415 6.472874999999999 4.3425C6.61062 3.9292350000000003 6.651075 3.62163 6.6159 3.255C6.478515 1.822995 5.397645 0.6807 3.9832199999999998 0.47270999999999996C3.78 0.44282999999999995 3.427155 0.432285 3.2475 0.450735M3.1799999999999997 1.37148C2.466555 1.4991299999999999 1.86951 1.9440749999999998 1.5684150000000001 2.5725C1.41024 2.90265 1.3575 3.13332 1.3575 3.4949999999999997C1.357515 3.7353 1.3609799999999999 3.76992 1.398585 3.9044399999999997C1.593435 4.60155 2.228415 5.696745 3.16578 6.9525C3.2951099999999998 7.12575 3.43107 7.306019999999999 3.4679249999999997 7.353104999999999L3.53493 7.438725 3.737985 7.173105C4.872315 5.68929 5.61936 4.366935 5.715269999999999 3.67311C5.745615 3.453525 5.698035 3.09342 5.601855 2.8148999999999997C5.5111349999999995 2.552175 5.369625 2.308935 5.184105000000001 2.0968349999999996C4.869464999999999 1.737105 4.454834999999999 1.4937449999999999 3.9749999999999996 1.3871699999999998C3.82218 1.3532399999999998 3.3356699999999995 1.34364 3.1799999999999997 1.37148M3.33 2.893125C2.797605 3.0642 2.697615 3.77958 3.162555 4.091205C3.2946299999999997 4.179735 3.39003 4.20471 3.568305 4.197435C3.755385 4.189815 3.8746949999999996 4.1377049999999995 4.0062 4.0062C4.1377049999999995 3.8746949999999996 4.189815 3.755385 4.197435 3.568305C4.20471 3.39003 4.179735 3.2946299999999997 4.091205 3.162555C3.9270300000000002 2.917605 3.6066749999999996 2.80422 3.33 2.893125M11.2425 6.66054C10.12974 6.73932 9.13548 7.42293 8.662964999999998 8.43408C8.462684999999999 8.862675 8.352689999999999 9.390239999999999 8.374545 9.817499999999999C8.410049999999998 10.511385 8.81931 11.425575 9.667185 12.705C10.095495 13.351305 10.733099999999999 14.211585 10.877085 14.337465C11.047305 14.486265 11.24106 14.55705 11.475 14.55588C11.784885 14.554335 11.999565 14.436074999999999 12.229395 14.140334999999999C13.337745 12.714135 14.12124 11.419694999999999 14.414504999999998 10.53024C14.537565 10.157024999999999 14.579234999999999 9.84531 14.550899999999999 9.51C14.48706 8.754404999999998 14.18475 8.096985 13.657499999999999 7.567155C13.01625 6.922769999999999 12.147105 6.59649 11.2425 6.66054M11.129999999999999 7.581974999999999C10.30974 7.716045 9.65166 8.27337 9.390435 9.0552C9.314715 9.281805 9.282195 9.482384999999999 9.281429999999999 9.7275C9.280904999999999 9.897495 9.28662 9.944625 9.32607 10.094999999999999C9.515429999999999 10.816815 10.192454999999999 11.970075 11.240129999999999 13.355429999999998C11.417715 13.590255 11.468835 13.648919999999999 11.481465 13.632375C11.938574999999998 13.033619999999999 12.285675 12.55092 12.56013 12.1323C13.108365 11.296095 13.463775 10.60839 13.598819999999998 10.12248C13.66713 9.87675 13.665495 9.515294999999998 13.594800000000001 9.2325C13.375274999999998 8.35434 12.664814999999999 7.711365 11.764619999999999 7.576199999999999C11.625089999999998 7.555244999999999 11.273985 7.55844 11.129999999999999 7.581974999999999M11.3025 9.096165C11.113439999999999 9.143085 10.946445 9.279615 10.85775 9.459795C10.813455000000001 9.549764999999999 10.80744 9.5772 10.80252 9.71163C10.79391 9.946995 10.856445 10.098105 11.025255 10.249875000000001C11.327475 10.521615 11.806754999999999 10.453589999999998 12.030645 10.107194999999999C12.19737 9.849225 12.16347 9.512715 11.94801 9.286814999999999C11.777415 9.107955 11.538854999999998 9.0375 11.3025 9.096165M3.4049099999999997 9.268139999999999C3.28428 9.307649999999999 3.180015 9.402209999999998 3.121695 9.525L3.0825 9.6075 3.0825 10.582814999999998L3.0825 11.558115 3.13173 11.658134999999998C3.18726 11.770919999999998 3.24126 11.823134999999999 3.35778 11.8767C3.427815 11.90889 3.45384 11.912774999999998 3.56166 11.907119999999999C3.66078 11.901914999999999 3.6987 11.89275 3.753075 11.86089C3.83634 11.812095 3.9091050000000003 11.731125 3.95091 11.640765C3.9820200000000003 11.573535 3.9825 11.55744 3.9825 10.5825C3.9825 9.60123 3.9822149999999996 9.591885 3.950265 9.522765C3.9109949999999998 9.437835 3.818505 9.34269 3.731865 9.29814C3.662265 9.262335 3.475035 9.24516 3.4049099999999997 9.268139999999999M3.4049099999999997 12.79314C3.284385 12.83262 3.1792649999999996 12.927855 3.123495 13.04811C3.0883649999999996 13.12383 3.08655 13.139775 3.09372 13.31061C3.0999749999999997 13.45971 3.109725 13.518194999999999 3.14784 13.635C3.290685 14.072865 3.65226 14.409254999999998 4.1025 14.523195C4.231529999999999 14.55585 4.263375 14.557364999999999 4.8225 14.557425C5.389485 14.5575 5.409644999999999 14.55651 5.477234999999999 14.525265C5.561369999999999 14.48637 5.656409999999999 14.394449999999999 5.703015 14.306865C5.75145 14.21589 5.75259 14.001045 5.705115 13.9125C5.6640299999999995 13.835864999999998 5.5743 13.746089999999999 5.4975 13.70478C5.44002 13.67385 5.41425 13.672185 4.882499999999999 13.664835C4.34439 13.657395000000001 4.32522 13.65612 4.2524999999999995 13.622834999999998C4.163475 13.582094999999999 4.0737749999999995 13.499429999999998 4.033110000000001 13.420634999999999C4.01697 13.38936 3.996705 13.304985 3.98808 13.233134999999999C3.9689849999999995 13.07415 3.937035 12.997035 3.8571299999999997 12.91713C3.764805 12.824805 3.6868649999999996 12.79083 3.5549999999999997 12.78543C3.493125 12.782895 3.42558 12.786359999999998 3.4049099999999997 12.79314M6.858 13.71087C6.752985 13.76334 6.7008 13.818570000000001 6.6483 13.93278C6.61611 14.002814999999998 6.612225 14.028839999999999 6.6178799999999995 14.13666C6.623085 14.23578 6.632249999999999 14.2737 6.66411 14.328075C6.712904999999999 14.41134 6.793875 14.484105 6.884235 14.52591C6.949694999999999 14.55621 6.974955 14.5575 7.5 14.5575C8.025045 14.5575 8.050305 14.55621 8.115765 14.52591C8.206125 14.484105 8.287094999999999 14.41134 8.33589 14.328075C8.367750000000001 14.2737 8.376915 14.23578 8.38212 14.13666C8.387775 14.028839999999999 8.383890000000001 14.002814999999998 8.3517 13.93278C8.299199999999999 13.818570000000001 8.247015000000001 13.76334 8.142 13.71087L8.050215 13.665 7.5 13.665L6.949785 13.665 6.858 13.71087" stroke="none" fill="#7D12FF" fill-rule="evenodd"></path>
</svg>