<?xml version="1.0" encoding="utf-8"?>
<!-- Generator: Adobe Illustrator 27.0.1, SVG Export Plug-In . SVG Version: 6.00 Build 0)  -->
<svg version="1.1" id="Layer_1" xmlns="http://www.w3.org/2000/svg" xmlns:xlink="http://www.w3.org/1999/xlink" x="0px" y="0px"
	 viewBox="0 0 110.3 215.3" style="enable-background:new 0 0 110.3 215.3;" xml:space="preserve">
<style type="text/css">
	.st0{fill:#1C1C1B;}
</style>
<g>
	<path class="st0" d="M103.5,182.2H6.8c-3.8,0-6.8-3.1-6.8-6.8V88.8C0,85,3.1,82,6.8,82h96.7c3.8,0,6.8,3.1,6.8,6.8v86.6
		C110.3,179.1,107.3,182.2,103.5,182.2z M13.6,168.6h83v-73h-83V168.6z"/>
</g>
<g>
	<path class="st0" d="M55.2,157.5c-14,0-25.4-11.4-25.4-25.4c0-14,11.4-25.4,25.4-25.4c14,0,25.4,11.4,25.4,25.4
		C80.6,146.1,69.2,157.5,55.2,157.5z M55.2,120.3c-6.5,0-11.8,5.3-11.8,11.8c0,6.5,5.3,11.8,11.8,11.8s11.8-5.3,11.8-11.8
		C66.9,125.6,61.7,120.3,55.2,120.3z"/>
</g>
<g>
	<path class="st0" d="M94.3,215.3c-3.8,0-6.8-3.1-6.8-6.8v-26.8H22.9v26.8c0,3.8-3.1,6.8-6.8,6.8s-6.8-3.1-6.8-6.8v-33.6
		c0-3.8,3.1-6.8,6.8-6.8h78.2c3.8,0,6.8,3.1,6.8,6.8v33.6C101.1,212.2,98,215.3,94.3,215.3z"/>
</g>
<g>
	<path class="st0" d="M103.5,95.6H6.8c-2.7,0-5.1-1.6-6.2-4c-1.1-2.5-0.7-5.3,1.1-7.3l24.6-27.5c1.3-1.4,3.1-2.3,5.1-2.3h47.6
		c1.9,0,3.8,0.8,5.1,2.3l24.6,27.5c1.8,2,2.2,4.9,1.1,7.3S106.2,95.6,103.5,95.6z M22.1,82h66.2L75.9,68.2H34.4L22.1,82z"/>
</g>
<g>
	<path class="st0" d="M78.9,68.2H31.4c-3.8,0-6.8-3.1-6.8-6.8V43.2c0-1.9,0.8-3.6,2.1-4.9l23.8-22.7c2.6-2.5,6.8-2.5,9.4,0
		l23.8,22.7c1.3,1.3,2.1,3.1,2.1,4.9v18.2C85.8,65.1,82.7,68.2,78.9,68.2z M38.2,54.5h33.9v-8.4l-17-16.2l-17,16.2V54.5z"/>
</g>
<g>
	<path class="st0" d="M55.2,27.3c-3.8,0-6.8-3.1-6.8-6.8V6.8c0-3.8,3.1-6.8,6.8-6.8S62,3.1,62,6.8v13.6C62,24.2,58.9,27.3,55.2,27.3
		z"/>
</g>
<g>
	<path class="st0" d="M43.3,215.3c-3.8,0-6.8-3.1-6.8-6.8V198c0-3.8,3.1-6.8,6.8-6.8s6.8,3.1,6.8,6.8v10.5
		C50.1,212.2,47,215.3,43.3,215.3z"/>
</g>
<g>
	<path class="st0" d="M67,215.3c-3.8,0-6.8-3.1-6.8-6.8V198c0-3.8,3.1-6.8,6.8-6.8c3.8,0,6.8,3.1,6.8,6.8v10.5
		C73.9,212.2,70.8,215.3,67,215.3z"/>
</g>
</svg>
