<svg xmlns="http://www.w3.org/2000/svg" width="40" height="40" viewBox="0 0 15 15" version="1.1" id="Music-Genre-Stars--Streamline-Streamline--3.0.svg"><desc>Music Genre Stars Streamline Icon: https://streamlinehq.com</desc>
	<path d="M11.809455 0.45003C11.660804999999998 0.48106499999999996 11.523105 0.60564 11.477895 0.75C11.46885 0.778875 11.45439 0.9138749999999999 11.445749999999999 1.05C11.40876 1.633605 11.271765 1.990905 10.987379999999998 2.245545C10.71426 2.49009 10.373235 2.602455 9.793199999999999 2.638995C9.499424999999999 2.657505 9.393059999999998 2.7135299999999996 9.300705 2.89833C9.214545 3.070755 9.248669999999999 3.27432 9.38607 3.40752C9.508439999999998 3.5261549999999997 9.532065 3.53313 9.885 3.554715C10.402439999999999 3.586365 10.709744999999998 3.6885749999999997 10.984815 3.92052C11.153369999999999 4.062645 11.296814999999999 4.32027 11.371035 4.614105C11.411685 4.775099999999999 11.421449999999998 4.849575 11.458409999999999 5.2814250000000005C11.47461 5.470635 11.501175 5.531804999999999 11.60934 5.629065C11.749905 5.75544 11.936145 5.782005 12.10167 5.699294999999999C12.28557 5.6073900000000005 12.33582 5.510924999999999 12.36816 5.18769C12.455279999999998 4.316624999999999 12.752234999999999 3.8551949999999997 13.35618 3.6524699999999997C13.52487 3.595845 13.675769999999998 3.57096 13.9575 3.553305C14.238705 3.5356949999999996 14.312505 3.51456 14.41884 3.4212000000000002C14.5998 3.26232 14.602965 2.95083 14.425379999999999 2.778525C14.316149999999999 2.6725499999999998 14.263229999999998 2.654205 14.0217 2.638605C13.41552 2.5994249999999997 13.030005 2.461005 12.761354999999998 2.1860399999999998C12.519945 1.938945 12.386985 1.561575 12.366405 1.065C12.361785 0.9536250000000001 12.350670000000001 0.82875 12.3417 0.7875C12.29139 0.556095 12.04617 0.40062 11.809455 0.45003M3.8504699999999996 1.7466599999999999C3.772875 1.774335 3.683925 1.837965 3.637215 1.89921C3.562965 1.9965600000000001 3.55164 2.0466450000000003 3.53802 2.33808C3.4613549999999997 3.97875 2.72349 4.72362 1.0828349999999998 4.81665C0.746685 4.8357149999999995 0.680295 4.854705 0.572325 4.962675C0.49668 5.03832 0.46807499999999996 5.092829999999999 0.448515 5.19864C0.41710499999999995 5.36859 0.49617 5.55447 0.640575 5.650155C0.7345499999999999 5.71242 0.80454 5.72982 0.9615750000000001 5.72991C1.0325550000000001 5.729955 1.17768 5.737035 1.284075 5.745645C2.0003249999999997 5.80356 2.523465 6.006135 2.88426 6.3652500000000005C3.2816099999999997 6.760755 3.5023199999999997 7.3799850000000005 3.53346 8.186805C3.543675 8.451045 3.560025 8.53548 3.6183899999999998 8.625255000000001C3.7711799999999998 8.860259999999998 4.08987 8.90007 4.299824999999999 8.710379999999999C4.383555 8.634749999999999 4.426905 8.538285 4.4419949999999995 8.394075C4.4489849999999995 8.327205000000001 4.464779999999999 8.176005 4.47708 8.058075C4.521045 7.636559999999999 4.622775 7.2547049999999995 4.7760299999999996 6.93597C4.879755 6.720224999999999 4.98552 6.564945 5.13609 6.40734C5.548604999999999 5.9755199999999995 6.108585 5.764455 6.91953 5.735145C7.215315 5.7244649999999995 7.291245 5.7048 7.397354999999999 5.611395C7.50222 5.5190850000000005 7.5375 5.43378 7.5375 5.2725C7.5375 5.152425 7.53297 5.12979 7.49649 5.067735C7.441575 4.97433 7.333365 4.881614999999999 7.247565 4.8544350000000005C7.209029999999999 4.842225 7.060335 4.824885 6.917115 4.815885000000001C6.349664999999999 4.78026 5.986215 4.695105 5.600849999999999 4.507499999999999C4.867184999999999 4.1503499999999995 4.511444999999999 3.5030249999999996 4.455044999999999 2.4225C4.43694 2.0755049999999997 4.4319749999999996 2.0374649999999996 4.395345 1.9656899999999997C4.35525 1.887075 4.2284999999999995 1.777425 4.14474 1.74888C4.059945 1.71999 3.9280350000000004 1.718985 3.8504699999999996 1.7466599999999999M11.853945 2.63658C11.788409999999999 2.732325 11.628044999999998 2.8953 11.49657 2.999775L11.388615 3.08556 11.49147 3.163995C11.609594999999999 3.254085 11.781645 3.43341 11.869679999999999 3.55821L11.930145 3.6439199999999996 11.996295 3.5530199999999996C12.082019999999998 3.43521 12.264899999999999 3.2441549999999997 12.36831 3.16437L12.449744999999998 3.10155 12.386115 3.0559499999999997C12.234015 2.9469299999999996 12.010259999999999 2.72517 11.924999999999999 2.598975C11.902605 2.565825 11.90226 2.566005 11.853945 2.63658M3.8966700000000003 4.34553C3.65868 4.70787 3.362355 4.997445 3.02244 5.199795C2.969145 5.231535 2.9254049999999996 5.2611 2.925255 5.26551C2.92512 5.269919999999999 2.946945 5.28609 2.97375 5.30145C3.38169 5.535105 3.74058 5.899875 3.9746849999999996 6.31878L4.022894999999999 6.40506 4.113885 6.25878C4.34451 5.8880099999999995 4.61769 5.603775 4.9575 5.381055C5.03175 5.332395 5.093954999999999 5.288054999999999 5.095725 5.282534999999999C5.097495 5.277015 5.049314999999999 5.24415 4.988625 5.209515C4.634745 5.007465 4.272825 4.6524 4.046775 4.28553L3.993195 4.198545 3.8966700000000003 4.34553M9.969885 6.96168C9.92169 6.96999 9.250065000000001 7.152075 8.477385 7.36632C6.96648 7.785255 6.91083 7.803825 6.709515 7.956074999999999C6.48192 8.1282 6.30735 8.39193 6.2278199999999995 8.68383L6.188669999999999 8.827499999999999 6.18348 10.209795L6.178305 11.592105 6.092565 11.558505C5.901059999999999 11.48346 5.79894 11.467425 5.52 11.46864C5.28051 11.469689999999998 5.245665 11.47332 5.1225 11.5101C4.56945 11.67525 4.179915 12.078104999999999 4.0251149999999996 12.645C3.986235 12.78741 3.98631 13.225109999999999 4.0252349999999995 13.372499999999999C4.14603 13.82982 4.47075 14.225774999999999 4.881209999999999 14.416244999999998C5.31453 14.617304999999998 5.85723 14.601299999999998 6.269864999999999 14.37531C6.61383 14.18691 6.887625 13.86552 7.002959999999999 13.514804999999999C7.09077 13.247745 7.085204999999999 13.398404999999999 7.094219999999999 11.0475L7.1025 8.8875 7.135665 8.82549C7.1772 8.74785 7.247085 8.6772 7.318319999999999 8.640855C7.348485 8.625464999999998 7.983899999999999 8.44275 8.73033 8.234805C9.71997 7.959119999999999 10.109835 7.85652 10.17 7.855935000000001C10.333035 7.854345 10.502265 7.97163 10.56015 8.126325C10.588890000000001 8.203154999999999 10.59 8.24451 10.59 9.239445L10.59 10.272765 10.503419999999998 10.238835C10.31175 10.16373 10.208955 10.147454999999999 9.93 10.148115C9.725085 10.148579999999999 9.646109999999998 10.154625 9.57 10.175654999999999C8.70288 10.41522 8.210999999999999 11.271555 8.454239999999999 12.118139999999999C8.65968 12.83319 9.34206 13.29693 10.0872 13.2279C10.271085 13.21086 10.37964 13.183874999999999 10.545 13.114064999999998C11.040389999999999 12.904919999999999 11.386244999999999 12.464025 11.47635 11.9268C11.484689999999999 11.877059999999998 11.490255000000001 11.080605 11.489939999999999 9.984164999999999C11.489475 8.360339999999999 11.486445 8.111429999999999 11.465985 8.011664999999999C11.359875 7.494209999999999 10.947915 7.084199999999999 10.424999999999999 6.97563C10.307265 6.951179999999999 10.072515 6.94398 9.969885 6.96168M9.75 11.067269999999999C9.642869999999998 11.102805 9.554175 11.159775 9.470009999999998 11.247134999999998C9.34362 11.378295 9.292905000000001 11.523419999999998 9.302595 11.72616C9.31077 11.89692 9.36489 12.01923 9.485775 12.14013C9.61962 12.273959999999999 9.754605 12.329564999999999 9.946394999999999 12.329835C10.42977 12.330525 10.737435 11.82 10.515405 11.385674999999999C10.457865 11.273115 10.332825 11.15538 10.21095 11.09901C10.117755 11.0559 10.08351 11.048219999999999 9.9675 11.04438C9.867405 11.041065 9.811169999999999 11.04699 9.75 11.067269999999999M5.37 12.381465C5.149065 12.442935 4.96983 12.624015 4.910925 12.84525C4.820250000000001 13.185825 5.028315 13.54089 5.373404999999999 13.634475C5.41665 13.646204999999998 5.495715 13.651245 5.57616 13.647405C5.746919999999999 13.63923 5.86923 13.585109999999998 5.99013 13.464224999999999C6.12396 13.33038 6.179565 13.195395 6.179835 13.003605C6.180345 12.644384999999998 5.886284999999999 12.35583 5.52534 12.361335C5.477024999999999 12.362085 5.407125 12.371129999999999 5.37 12.381465" stroke="none" fill="#7D12FF" fill-rule="evenodd"></path>
</svg>