<?xml version="1.0" encoding="utf-8"?>
<!-- Generator: Adobe Illustrator 27.3.1, SVG Export Plug-In . SVG Version: 6.00 Build 0)  -->
<svg version="1.1" id="Layer_1" xmlns="http://www.w3.org/2000/svg" xmlns:xlink="http://www.w3.org/1999/xlink" x="0px" y="0px"
	 viewBox="0 0 27 48" style="enable-background:new 0 0 27 48;" xml:space="preserve">
<style type="text/css">
	.st0{fill:#1C1C1B;}
</style>
<g>
	<path class="st0" d="M10.5,48c-0.1,0-0.3,0-0.4-0.1C9.4,47.8,9,47.2,9,46.5V30H3.5c-0.7,0-1.3-0.2-1.9-0.5
		c-0.8-0.5-1.4-1.3-1.6-2.2c-0.2-0.9-0.1-1.9,0.4-2.7L15.2,0.7c0.4-0.6,1-0.8,1.7-0.7C17.6,0.2,18,0.8,18,1.5V18h5.5
		c0.7,0,1.3,0.2,1.9,0.5c1.7,1,2.2,3.2,1.2,4.9v0L11.8,47.3C11.5,47.7,11,48,10.5,48z M15,6.8L3.1,26.2C3,26.3,3,26.5,3,26.6
		s0.1,0.2,0.2,0.3C3.3,27,3.4,27,3.5,27h7c0.8,0,1.5,0.7,1.5,1.5v12.7l11.9-19.4c0.2-0.3,0.1-0.6-0.2-0.8C23.7,21,23.6,21,23.5,21
		h-7c-0.8,0-1.5-0.7-1.5-1.5V6.8z M25.2,22.6L25.2,22.6L25.2,22.6z"/>
</g>
</svg>
