<svg xmlns="http://www.w3.org/2000/svg" width="40" height="40" viewBox="0 0 15 15" version="1.1" id="Reception-Hotel-Bell--Streamline-Ultimate.svg"><desc>Reception Hotel Bell Streamline Icon: https://streamlinehq.com</desc>
	<path d="M3.135 0.4584C2.803395 0.529875 2.513655 0.81546 2.428245 1.155C2.398845 1.271895 2.39802 3.051435 2.427285 3.2399999999999998C2.57589 4.197629999999999 3.194835 4.940639999999999 4.1025 5.251005C4.19886 5.2839599999999995 4.21512 5.293575 4.185 5.29986C3.976005 5.3434349999999995 3.762345 5.39628 3.645 5.43342C2.2590600000000003 5.8721250000000005 1.2158849999999999 7.029419999999999 0.9294 8.44611L0.88518 8.664705 0.80931 8.74611C0.633795 8.93436 0.5178900000000001 9.163499999999999 0.463005 9.430665C0.43578 9.56319 0.43479 9.662805 0.43856999999999996 11.875665L0.4425 14.1825 0.48222000000000004 14.26722C0.5328 14.3751 0.6248999999999999 14.4672 0.7327799999999999 14.517779999999998L0.8175 14.5575 7.5 14.5575L14.1825 14.5575 14.26722 14.517779999999998C14.3751 14.4672 14.4672 14.3751 14.517779999999998 14.26722L14.5575 14.1825 14.561444999999999 11.879999999999999C14.565795 9.34641 14.569725 9.467130000000001 14.47416 9.205274999999999C14.417414999999998 9.049755 14.337105 8.916015 14.215679999999999 8.774745C14.12385 8.667914999999999 14.118194999999998 8.656889999999999 14.108145 8.564744999999998C13.992045 7.500119999999999 13.21551 6.58308 12.17949 6.287129999999999C12.09315 6.2624699999999995 12.003945 6.23826 11.98125 6.233355L11.94 6.22443 11.94 6.022215L11.94 5.819999999999999 12.116249999999999 5.81988C12.42843 5.819685 12.54711 5.785575 12.66786 5.66133C12.773805 5.552325 12.802545 5.477205 12.802275 5.31C12.802079999999998 5.18526 12.797130000000001 5.158155 12.762525 5.0925C12.71226 4.997145 12.628155 4.9129499999999995 12.532499999999999 4.8622499999999995L12.4575 4.8225 11.942805 4.8149999999999995C11.659709999999999 4.810875 11.20071 4.810875 10.922805 4.8149999999999995L10.4175 4.8225 10.3425 4.8622499999999995C10.246845 4.9129499999999995 10.16274 4.997145 10.112475 5.0925C10.077869999999999 5.158155 10.07292 5.18526 10.072725 5.31C10.072455 5.477205 10.101195 5.552325 10.207139999999999 5.66133C10.327889999999998 5.785575 10.44657 5.819685 10.75875 5.81988L10.934999999999999 5.819999999999999 10.934999999999999 6.021915L10.934999999999999 6.223845 10.87875 6.238515C10.847819999999999 6.2465850000000005 10.78017 6.26394 10.72845 6.27708C10.52949 6.327629999999999 10.279065 6.433845 10.075935 6.5538300000000005C9.449625 6.92376 9.004455 7.52382 8.8176 8.25L8.800229999999999 8.317499999999999 8.785395 8.265C8.57316 7.5138 8.243369999999999 6.937544999999999 7.7331900000000005 6.426495C7.356735 6.049395 6.9293700000000005 5.76114 6.447315000000001 5.559164999999999C6.1833149999999995 5.44857 5.999039999999999 5.39448 5.5649999999999995 5.30019C5.534625 5.29359 5.550299999999999 5.284245 5.6475 5.251005C6.460859999999999 4.972874999999999 7.059555 4.330365 7.266674999999999 3.5132849999999998C7.34514 3.203715 7.35222 3.0781650000000003 7.346114999999999 2.1030149999999996C7.341284999999999 1.3304399999999998 7.337174999999999 1.196445 7.316145 1.126965C7.21449 0.7911 6.93396 0.52611 6.6075 0.45756C6.455159999999999 0.42557999999999996 3.2837249999999996 0.426345 3.135 0.4584M3.405 1.894275L3.405 2.3485349999999996 3.609345 2.30751C4.018454999999999 2.22537 4.392239999999999 2.1905849999999996 4.8690750000000005 2.1902399999999997C5.3574 2.189895 5.77875 2.2300649999999997 6.18375 2.3155949999999996L6.345 2.3496449999999998 6.345 1.894815L6.345 1.44 4.875 1.44L3.405 1.44 3.405 1.894275M4.4399999999999995 3.20406C4.411124999999999 3.207375 4.32 3.21732 4.2375 3.2261399999999996C4.052535 3.245925 3.80211 3.2881799999999997 3.6197999999999997 3.330345L3.482115 3.362205 3.5018399999999996 3.4181399999999997C3.61512 3.739185 3.9045 4.06071 4.2225 4.218825C4.6381499999999996 4.42551 5.150415 4.41774 5.56236 4.198515C5.869545 4.03503 6.13836 3.729315 6.24789 3.4188899999999998L6.26757 3.3631349999999998 6.1300349999999995 3.3316649999999997C5.692934999999999 3.23163 5.477475 3.2080800000000003 4.95 3.202695C4.698375 3.200115 4.468875 3.20073 4.4399999999999995 3.20406M4.471995 6.278355C4.138545000000001 6.321179999999999 3.8570699999999993 6.405435 3.5475 6.55506C2.976885 6.830865 2.545575 7.236929999999999 2.22858 7.796789999999999C2.147475 7.94004 2.0104349999999998 8.250225 2.0101349999999996 8.29125C2.01003 8.306189999999999 2.59293 8.31 4.875 8.31C6.51687 8.31 7.739999999999999 8.30436 7.739999999999999 8.296785C7.739999999999999 8.27508 7.671195 8.1009 7.611915 7.9725C7.38987 7.49163 6.9925049999999995 7.036199999999999 6.5325 6.73536C6.38268 6.63738 6.065595 6.4824 5.8875 6.4201049999999995C5.467154999999999 6.27309 4.93098 6.21939 4.471995 6.278355M11.1975 7.201635C10.96332 7.23537 10.703325 7.336785 10.494105 7.475999999999999C10.22841 7.6527899999999995 9.93669 8.022585000000001 9.862815 8.27625L9.852974999999999 8.31 11.436494999999999 8.31C12.60282 8.31 13.02 8.305544999999999 13.02 8.293064999999999C13.02 8.25309 12.873899999999999 7.98267 12.795359999999999 7.877280000000001C12.69498 7.742565000000001 12.50694 7.559565 12.381345 7.474365C12.04887 7.2488399999999995 11.595195 7.14432 11.1975 7.201635M1.69122 9.336405C1.608255 9.366014999999999 1.53606 9.426855 1.48908 9.50676L1.4475 9.577499999999999 1.44354 11.56875L1.439565 13.559999999999999 7.5 13.559999999999999L13.560435 13.559999999999999 13.55646 11.56875L13.5525 9.577499999999999 13.510919999999999 9.50676C13.46394 9.426855 13.391745 9.366014999999999 13.308779999999999 9.336405C13.22496 9.30648 1.77504 9.30648 1.69122 9.336405" stroke="none" fill="#7D12FF" fill-rule="evenodd"></path>
</svg>