<?xml version="1.0" encoding="utf-8"?>
<!-- Generator: Adobe Illustrator 27.3.1, SVG Export Plug-In . SVG Version: 6.00 Build 0)  -->
<svg version="1.1" id="Layer_1" xmlns="http://www.w3.org/2000/svg" xmlns:xlink="http://www.w3.org/1999/xlink" x="0px" y="0px"
     viewBox="0 0 48 48" style="enable-background:new 0 0 48 48;" xml:space="preserve">
<style type="text/css">
	.st0{fill:#7D12FF;}
</style>
    <g>
	<path class="st0" d="M10.5,48C4.7,48,0,43.3,0,37.5S4.7,27,10.5,27S21,31.7,21,37.5S16.3,48,10.5,48z M10.5,30
		C6.4,30,3,33.4,3,37.5S6.4,45,10.5,45s7.5-3.4,7.5-7.5S14.6,30,10.5,30z"/>
</g>
    <g>
	<path class="st0" d="M37.5,48C31.7,48,27,43.3,27,37.5S31.7,27,37.5,27S48,31.7,48,37.5S43.3,48,37.5,48z M37.5,30
		c-4.1,0-7.5,3.4-7.5,7.5s3.4,7.5,7.5,7.5s7.5-3.4,7.5-7.5S41.6,30,37.5,30z"/>
</g>
    <g>
	<path class="st0" d="M24,21c-5.8,0-10.5-4.7-10.5-10.5S18.2,0,24,0c5.8,0,10.5,4.7,10.5,10.5S29.8,21,24,21z M24,3
		c-4.1,0-7.5,3.4-7.5,7.5S19.9,18,24,18s7.5-3.4,7.5-7.5S28.1,3,24,3z"/>
</g>
    <g>
	<path class="st0" d="M33.5,31c-0.5,0-1.1-0.3-1.3-0.8l-5.5-10.9c-0.4-0.7-0.1-1.6,0.7-2c0.7-0.4,1.6-0.1,2,0.7l5.5,10.9
		c0.4,0.7,0.1,1.6-0.7,2C33.9,30.9,33.7,31,33.5,31z"/>
</g>
    <g>
	<path class="st0" d="M28.5,39h-9c-0.8,0-1.5-0.7-1.5-1.5s0.7-1.5,1.5-1.5h9c0.8,0,1.5,0.7,1.5,1.5S29.3,39,28.5,39z"/>
</g>
    <g>
	<path class="st0" d="M14.5,31c-0.2,0-0.5-0.1-0.7-0.2c-0.7-0.4-1-1.3-0.7-2l5.5-10.9c0.4-0.7,1.3-1,2-0.7c0.7,0.4,1,1.3,0.7,2
		l-5.5,10.9C15.6,30.6,15.1,31,14.5,31z"/>
</g>
</svg>