<svg xmlns="http://www.w3.org/2000/svg" viewBox="0 0 25 25" height="25" width="25" id="Study-Light-Idea--Streamline-Streamline--3.0.svg">
    <desc>Study Light Idea Streamline Icon: https://streamlinehq.com</desc>
    <defs></defs>
    <title>study-light-idea</title>
    <path d="m12.5 2.3447916666666666 0 -1.5625" fill="none" stroke="#7D12FF" stroke-linecap="round" stroke-linejoin="round" stroke-width="1.5"></path>
    <path d="m19.12916666666667 5.091666666666667 1.1052083333333333 -1.1052083333333333" fill="none" stroke="#7D12FF" stroke-linecap="round" stroke-linejoin="round" stroke-width="1.5"></path>
    <path d="m21.875 11.719791666666667 1.5625 0" fill="none" stroke="#7D12FF" stroke-linecap="round" stroke-linejoin="round" stroke-width="1.5"></path>
    <path d="m19.12916666666667 18.348958333333332 1.1052083333333333 1.1052083333333333" fill="none" stroke="#7D12FF" stroke-linecap="round" stroke-linejoin="round" stroke-width="1.5"></path>
    <path d="M5.870833333333334 5.091666666666667 4.765625000000001 3.9864583333333337" fill="none" stroke="#7D12FF" stroke-linecap="round" stroke-linejoin="round" stroke-width="1.5"></path>
    <path d="m3.125 11.719791666666667 -1.5625 0" fill="none" stroke="#7D12FF" stroke-linecap="round" stroke-linejoin="round" stroke-width="1.5"></path>
    <path d="m5.870833333333334 18.348958333333332 -1.1052083333333333 1.1052083333333333" fill="none" stroke="#7D12FF" stroke-linecap="round" stroke-linejoin="round" stroke-width="1.5"></path>
    <path d="M9.375 17.134375000000002v2.3958333333333335a3.125 3.125 0 0 0 6.25 0v-2.3958333333333335" fill="none" stroke="#7D12FF" stroke-linecap="round" stroke-linejoin="round" stroke-width="1.5"></path>
    <path d="M6.25 11.719791666666667a6.25 6.25 0 1 0 12.5 0 6.25 6.25 0 1 0 -12.5 0" fill="none" stroke="#7D12FF" stroke-linecap="round" stroke-linejoin="round" stroke-width="1.5"></path>
    <path d="m12.5 22.65729166666667 0 1.5625" fill="none" stroke="#7D12FF" stroke-linecap="round" stroke-linejoin="round" stroke-width="1.5"></path>
</svg>