<svg xmlns="http://www.w3.org/2000/svg" width="40" height="40" viewBox="0 0 15 15" version="1.1" id="Yoga-Shoulder-Stretch--Streamline-Streamline--3.0.svg"><desc>Yoga Shoulder Stretch Streamline Icon: https://streamlinehq.com</desc>
	<path d="M7.17 0.907245C6.521415 1.01775 5.9473199999999995 1.4599199999999999 5.685345 2.050755C5.459535 2.56002 5.449019999999999 3.12003 5.65575 3.62619C5.89989 4.223925 6.40539 4.65543 7.05 4.816365C7.176749999999999 4.848 7.22649 4.851929999999999 7.5 4.851929999999999C7.77351 4.851929999999999 7.823249999999999 4.848 7.949999999999999 4.816365C8.593649999999998 4.65567 9.10194 4.221885 9.343575 3.62709C9.51432 3.2067449999999997 9.538395 2.7490949999999996 9.41247 2.3175C9.19455 1.5707099999999998 8.559555 1.016505 7.789619999999999 0.9011549999999999C7.64748 0.87987 7.311315 0.88317 7.17 0.907245M7.2749999999999995 1.807335C7.149735 1.8354749999999997 7.06116 1.86828 6.967499999999999 1.9212299999999998C6.79662 2.01783 6.613155 2.210355 6.524385 2.3862149999999995C6.373455 2.6851949999999998 6.376964999999999 3.07713 6.533205 3.3743250000000002C6.668475 3.631605 6.908685 3.83181 7.185 3.91758C7.34769 3.96807 7.65231 3.96807 7.8149999999999995 3.91758C8.091315 3.83181 8.331525 3.631605 8.466795 3.3743250000000002C8.6226 3.07797 8.626109999999999 2.6843549999999996 8.475615000000001 2.3862149999999995C8.343075 2.12367 8.06925 1.8977549999999999 7.7924999999999995 1.822635C7.664745 1.7879699999999998 7.396484999999999 1.7800349999999998 7.2749999999999995 1.807335M2.07402 5.29536C1.533405 5.35275 1.0804349999999998 5.733465 0.9289499999999999 6.257775C0.888855 6.39651 0.873435 6.701294999999999 0.8990549999999999 6.848414999999999C0.9948149999999999 7.39827 1.4469899999999998 7.846229999999999 1.9949999999999999 7.93413C2.05917 7.94442 2.78862 7.949805 4.12875 7.949879999999999L6.165 7.949999999999999 6.165 8.375129999999999L6.165 8.80026 5.80875 8.809845C5.184735 8.82663 4.81164 8.910555 4.366215 9.13431C4.036485 9.299954999999999 3.8114999999999997 9.461849999999998 3.5536199999999996 9.71907C3.02847 10.242854999999999 2.7200699999999998 10.902945 2.654655 11.64321C2.643345 11.77113 2.6392499999999997 12.049305 2.64321 12.42C2.650245 13.07913 2.65593 13.118084999999999 2.7824699999999996 13.375169999999999C2.943135 13.701569999999998 3.2128349999999997 13.935089999999999 3.570105 14.057145C3.7093949999999998 14.10474 3.71823 14.105789999999999 3.9749999999999996 14.105789999999999C4.23177 14.105789999999999 4.2406049999999995 14.10474 4.379894999999999 14.057145C4.73292 13.936544999999999 4.99947 13.70784 5.160345 13.3875C5.2935 13.122359999999999 5.298645 13.088024999999998 5.308725 12.397499999999999C5.31705 11.828384999999999 5.319134999999999 11.793975 5.349209999999999 11.72895C5.3889 11.64315 5.477040000000001 11.55543 5.5649999999999995 11.514165C5.6289299999999995 11.484164999999999 5.659965 11.48226 6.15291 11.477865L6.673335 11.47323 6.9519899999999994 12.02817C7.105245 12.33339 7.276529999999999 12.652724999999998 7.332629999999999 12.737805C7.63749 13.200195 8.04117 13.554105 8.55168 13.806555C8.862554999999999 13.960275 9.200474999999999 14.059275 9.555 14.10051C9.647805 14.111295 9.974775 14.115285 10.4925 14.11191L11.2875 14.10675 11.429895 14.057624999999998C11.784254999999998 13.935374999999999 12.049634999999999 13.70751 12.210345 13.3875C12.32049 13.16817 12.3492 13.044089999999999 12.3492 12.7875C12.3492 12.53091 12.32049 12.40683 12.210345 12.1875C12.049484999999999 11.867189999999999 11.783009999999999 11.63853 11.429895 11.517825L11.2875 11.469149999999999 10.5525 11.46072C9.821325 11.452335 9.817094999999998 11.452110000000001 9.739095 11.41695C9.59433 11.351685 9.56574 11.306295 9.18558 10.537905L8.834999999999999 9.829305 8.834999999999999 8.889645L8.834999999999999 7.949999999999999 10.87125 7.949879999999999C12.21627 7.949805 12.94032 7.94445 13.004204999999999 7.934085C13.47849 7.8571349999999995 13.886999999999999 7.512269999999999 14.047289999999998 7.053525C14.101575 6.89814 14.119755 6.752895 14.110619999999999 6.547499999999999C14.09472 6.189855 13.960965 5.901705 13.692419999999998 5.646615C13.51938 5.482259999999999 13.317165 5.37348 13.07514 5.31459C12.97383 5.289945 12.650385 5.288265 7.574999999999999 5.28612C4.609125 5.2848749999999995 2.133675 5.2890299999999995 2.07402 5.29536M2.05986 6.219569999999999C1.9752 6.249569999999999 1.87485 6.340904999999999 1.831755 6.4272149999999995C1.725045 6.640875 1.820625 6.90888 2.04 7.01106C2.107395 7.042455 2.1113399999999998 7.042514999999999 4.425 7.05C7.024229999999999 7.058414999999999 6.787154999999999 7.046835 6.92286 7.171935C6.961169999999999 7.20726 7.0071449999999995 7.26345 7.02501 7.296824999999999C7.056855 7.3563 7.057589999999999 7.37187 7.061789999999999 8.081249999999999L7.066095 8.805 7.5 8.805L7.933905 8.805 7.938210000000001 8.081249999999999C7.94241 7.37187 7.9431449999999995 7.3563 7.974990000000001 7.296824999999999C7.992855 7.26345 8.03883 7.20726 8.07714 7.171935C8.212845 7.046835 7.975769999999999 7.058414999999999 10.575 7.05L12.8925 7.0424999999999995 12.959999999999999 7.01085C13.055445 6.966105 13.14915 6.864705 13.186544999999999 6.765734999999999C13.247684999999999 6.603855 13.19976 6.415155 13.06806 6.299219999999999C12.93819 6.184905 13.4769 6.194864999999999 7.49358 6.196185C2.792415 6.19722 2.114685 6.20013 2.05986 6.219569999999999M5.3999999999999995 9.742799999999999C4.57221 9.883695 3.9177899999999997 10.443195 3.654675 11.235C3.56226 11.5131 3.53538 11.80194 3.5425799999999996 12.44004C3.54729 12.859185 3.54894 12.880634999999998 3.58197 12.952499999999999C3.6809549999999995 13.1679 3.912 13.26621 4.128675 13.18515C4.22538 13.148954999999999 4.320285 13.056615 4.367775 12.952499999999999C4.401045 12.879554999999998 4.40223 12.8607 4.41129 12.2625C4.42095 11.623395 4.420965 11.623245 4.491585 11.430135C4.6476 11.00349 5.070405 10.66062 5.5275 10.590074999999999C5.595075 10.579649999999999 5.89176 10.575405 6.359999999999999 10.57818L7.0874999999999995 10.5825 7.167959999999999 10.627065C7.212225 10.651575 7.270544999999999 10.698825 7.297574999999999 10.732065C7.3246199999999995 10.765305 7.496759999999999 11.092755 7.680135 11.459729999999999C7.863510000000001 11.826705 8.04924 12.18108 8.092875 12.247229999999998C8.399144999999999 12.7116 8.892375 13.044825 9.462015000000001 13.172234999999999C9.597945000000001 13.20264 9.656025 13.20519 10.346505 13.21101C11.190104999999999 13.218119999999999 11.184104999999999 13.21881 11.31138 13.099755C11.490644999999999 12.93207 11.49471 12.65364 11.32038 12.482985C11.199824999999999 12.36495 11.22609 12.368565 10.4175 12.35883C9.738525 12.350639999999999 9.69066 12.348285 9.577499999999999 12.317339999999998C9.266549999999999 12.232304999999998 8.974590000000001 12.026625 8.807355 11.77476C8.771835 11.72127 8.563004999999999 11.316374999999999 8.343285 10.875L7.943804999999999 10.0725 7.93815 9.89625L7.932494999999999 9.719999999999999 6.72249 9.721829999999999C5.817075 9.723194999999999 5.48418 9.728475000000001 5.3999999999999995 9.742799999999999" stroke="none" fill="#7D12FF" fill-rule="evenodd"></path>
</svg>