<svg xmlns="http://www.w3.org/2000/svg" xmlns:xlink="http://www.w3.org/1999/xlink" width="34.697" height="34.672" viewBox="0 0 34.697 34.672">
  <defs>
    <linearGradient id="linear-gradient" x1="0.001" y1="0.516" x2="1" y2="0.516" gradientUnits="objectBoundingBox">
      <stop offset="0.093" stop-color="#3ec8ed"/>
      <stop offset="0.915" stop-color="#122f44"/>
    </linearGradient>
  </defs>
  <path id="Interface-Essential__x2F__VoiceID__x2F__voice-id" d="M31.448,34.672h-8.68a1.091,1.091,0,1,1,0-2.182h8.656A1.1,1.1,0,0,0,32.514,31.4V22.767a1.091,1.091,0,1,1,2.182,0v8.656A3.26,3.26,0,0,1,31.448,34.672ZM34.7,11.929V3.274A3.26,3.26,0,0,0,31.448.025h-8.68a1.1,1.1,0,0,0-1.091,1.091,1.1,1.1,0,0,0,1.091,1.091h8.656A1.1,1.1,0,0,1,32.514,3.3v8.656a1.091,1.091,0,1,0,2.182-.025Zm-32.489,0V3.274A1.1,1.1,0,0,1,3.3,2.182h8.656a1.1,1.1,0,0,0,1.091-1.091A1.1,1.1,0,0,0,11.954,0H3.274A3.276,3.276,0,0,0,.05,3.274v8.656a1.1,1.1,0,0,0,1.091,1.091A1.064,1.064,0,0,0,2.207,11.929ZM13.021,33.605a1.1,1.1,0,0,0-1.091-1.091H3.274a1.1,1.1,0,0,1-1.091-1.091V22.767a1.1,1.1,0,0,0-1.091-1.091A1.1,1.1,0,0,0,0,22.767v8.656a3.26,3.26,0,0,0,3.249,3.249H11.9A1.071,1.071,0,0,0,13.021,33.605Zm5.431-8.68V9.772a1.091,1.091,0,1,0-2.182,0V24.925a1.091,1.091,0,0,0,2.182,0Zm-5.431-3.249V13.021a1.091,1.091,0,0,0-2.182,0v8.656a1.091,1.091,0,0,0,2.182,0Zm10.838,0V13.021a1.091,1.091,0,0,0-2.182,0v8.656a1.091,1.091,0,0,0,2.182,0ZM7.614,19.518v-4.34a1.091,1.091,0,0,0-2.182,0v4.34a1.091,1.091,0,1,0,2.182,0Zm21.651,0v-4.34a1.091,1.091,0,0,0-2.182,0v4.34a1.091,1.091,0,1,0,2.182,0Z" fill="url(#linear-gradient)"/>
</svg>
